<?xml version="1.0" encoding="UTF-8"?>
<!DOCTYPE svg PUBLIC "-//W3C//DTD SVG 1.1//EN" "http://www.w3.org/Graphics/SVG/1.1/DTD/svg11.dtd">
<!-- Creator: CorelDRAW -->
<svg xmlns="http://www.w3.org/2000/svg" xml:space="preserve" width="2048px" height="2048px" style="shape-rendering:geometricPrecision; text-rendering:geometricPrecision; image-rendering:optimizeQuality; fill-rule:evenodd; clip-rule:evenodd"
viewBox="0 0 2048 2048"
 xmlns:xlink="http://www.w3.org/1999/xlink">
 <defs>
  <style type="text/css">
   <![CDATA[
    .fil1 {fill:none}
    .fil2 {fill:#00897B}
    .fil0 {fill:#4DB6AC}
   ]]>
  </style>
 </defs>
 <g id="Layer_x0020_1">
  <metadata id="CorelCorpID_0Corel-Layer"/>
  <path class="fil0" d="M255.999 993.851l47.1945 12.9508 -45.6697 20.1213 0 155.368 26.8784 15.5162 -26.8784 21.913 0 160.888c0,0 538.382,185.281 1098.32,153.6l436.158 -299.527 0 -160.888 -31.4516 -18.4311 28.7268 -31.0701 0 -166.57 -35.3611 -1.00512 33.8362 -34.3111 0 -166.554c0,0 -533.255,20.7862 -1045.94,-145.706l-485.809 322.654 0 161.051z"/>
  <rect class="fil1" width="2048" height="2048"/>
  <rect class="fil1" x="255.999" y="256" width="1536" height="1536"/>
  <path class="fil2" d="M314.079 849.53c4.94646,3.68386 360.01,84.6119 522.175,107.21l-2.45551 99.4855c-101.329,-19.0559 -422.622,-76.18 -517.013,-113.299l-2.70709 -93.3969z"/>
  <path class="fil2" d="M984.722 651.591l-317.041 222.806c-60.7867,-10.2661 -202.354,-49.3583 -263.158,-70.6028l330.651 -225.656c0,0 114.615,44.3115 249.548,73.4528z"/>
  <path class="fil2" d="M832.001 956.14c148.543,21.0225 321.489,39.9662 463.037,29.0433l418.334 -270.44 0 88.8638 -418.334 281.642c0,0 -220.142,1.25433 -463.037,-29.25l0 -99.8599z"/>
  <path class="fil2" d="M833.936 1162.78c148.524,20.8193 326.189,37.6973 468.006,26.6622l414.91 -267.541 0 88.8792 -414.91 278.522c0,0 -218.153,-3.24331 -468.006,-32.1236l0 -94.3985z"/>
  <path class="fil2" d="M863.149 1358.34c155.41,19.6961 317.274,38.1166 465.743,25.7823l387.959 -251.504 0 88.8792 -387.959 262.485c0,0 -209.238,-3.50079 -465.743,-31.0819l0 -94.5603z"/>
  <path class="fil2" d="M1598.74 714.949l-323.675 207.587c0,0 -209.31,-3.42756 -391.42,-23.5772l323.658 -218.622c87.7371,16.0276 391.438,34.6122 391.438,34.6122z"/>
  <path class="fil0" d="M930.82 673.098l-222.597 149.074c-0.251575,0.0496063 40.2378,-118.919 222.597,-149.074z"/>
  <path class="fil0" d="M946.135 877.589l242.895 -163.96c33.6567,148.794 -242.895,163.96 -242.895,163.96z"/>
  <path class="fil2" d="M314.079 1056c4.94646,3.68386 360.01,84.6119 522.175,107.21l-2.45551 93.9686c-101.329,-19.0559 -422.622,-70.663 -517.013,-107.782l-2.70709 -93.3969z"/>
  <path class="fil2" d="M314.079 1248c4.94646,3.68386 394.318,88.8603 556.484,111.458l-2.45551 93.9686c-101.329,-19.0559 -456.931,-74.9115 -551.321,-112.03l-2.70709 -93.3969z"/>
 </g>
</svg>
