<?xml version="1.0" encoding="UTF-8"?>
<!DOCTYPE svg PUBLIC "-//W3C//DTD SVG 1.1//EN" "http://www.w3.org/Graphics/SVG/1.1/DTD/svg11.dtd">
<!-- Creator: CorelDRAW -->
<svg xmlns="http://www.w3.org/2000/svg" xml:space="preserve" width="2048px" height="2048px" style="shape-rendering:geometricPrecision; text-rendering:geometricPrecision; image-rendering:optimizeQuality; fill-rule:evenodd; clip-rule:evenodd"
viewBox="0 0 2048 2048"
 xmlns:xlink="http://www.w3.org/1999/xlink">
 <defs>
  <style type="text/css">
   <![CDATA[
    .fil0 {fill:none}
    .fil4 {fill:#00897B}
    .fil1 {fill:#424242}
    .fil5 {fill:#EC407A}
    .fil2 {fill:#EF6C00}
    .fil3 {fill:#FFE0B2}
   ]]>
  </style>
 </defs>
 <g id="Layer_x0020_1">
  <metadata id="CorelCorpID_0Corel-Layer"/>
  <rect class="fil0" width="2048" height="2048"/>
  <rect class="fil0" x="255.999" y="255.999" width="1536" height="1536"/>
  <rect class="fil0" x="255.999" y="255.999" width="1536" height="1536"/>
  <rect class="fil0" x="255.999" y="255.999" width="1536" height="1536"/>
  <polygon class="fil1" points="1614.92,1673.7 1614.92,1732.85 "/>
  <path class="fil2" d="M1614.92 1792.01l-1181.49 0c-65.2016,0 -118.285,-53.1036 -118.285,-118.306l0 -1299.4c0,-65.2028 53.0835,-118.306 118.285,-118.306l1181.49 0c64.826,0 117.93,53.1036 117.93,118.306l0 1299.4c0,65.2028 -53.1036,118.306 -117.93,118.306z"/>
  <polygon class="fil3" points="433.433,374.301 433.433,1673.7 1614.63,1673.7 1614.92,374.301 "/>
  <polygon class="fil4" points="528.78,463.988 708.055,463.988 708.055,642.787 528.78,642.787 "/>
  <polygon class="fil5" points="528.78,777.734 708.055,777.734 708.055,956.533 528.78,956.533 "/>
  <polygon class="fil4" points="528.78,1091.47 708.055,1091.47 708.055,1270.27 528.78,1270.27 "/>
  <polygon class="fil5" points="528.78,1405.21 708.055,1405.21 708.055,1584.01 528.78,1584.01 "/>
  <polygon class="fil5" points="799.171,463.988 978.446,463.988 978.446,642.787 799.171,642.787 "/>
  <polygon class="fil4" points="799.171,777.734 978.446,777.734 978.446,956.533 799.171,956.533 "/>
  <polygon class="fil4" points="799.171,1091.47 978.446,1091.47 978.446,1270.27 799.171,1270.27 "/>
  <polygon class="fil4" points="799.171,1405.21 978.446,1405.21 978.446,1584.01 799.171,1584.01 "/>
  <polygon class="fil4" points="1069.56,463.988 1248.84,463.988 1248.84,642.787 1069.56,642.787 "/>
  <polygon class="fil4" points="1069.56,777.734 1248.84,777.734 1248.84,956.533 1069.56,956.533 "/>
  <polygon class="fil5" points="1069.56,1091.47 1248.84,1091.47 1248.84,1270.27 1069.56,1270.27 "/>
  <polygon class="fil4" points="1069.56,1405.21 1248.84,1405.21 1248.84,1584.01 1069.56,1584.01 "/>
  <polygon class="fil4" points="1339.96,463.988 1519.24,463.988 1519.24,642.787 1339.96,642.787 "/>
  <polygon class="fil4" points="1339.96,777.734 1519.24,777.734 1519.24,956.533 1339.96,956.533 "/>
  <polygon class="fil4" points="1339.96,1091.47 1519.24,1091.47 1519.24,1270.27 1339.96,1270.27 "/>
  <polygon class="fil5" points="1339.96,1405.21 1519.24,1405.21 1519.24,1584.01 1339.96,1584.01 "/>
 </g>
</svg>
