<?xml version="1.0" encoding="UTF-8"?>
<!DOCTYPE svg PUBLIC "-//W3C//DTD SVG 1.1//EN" "http://www.w3.org/Graphics/SVG/1.1/DTD/svg11.dtd">
<!-- Creator: CorelDRAW -->
<svg xmlns="http://www.w3.org/2000/svg" xml:space="preserve" width="2048px" height="2048px" style="shape-rendering:geometricPrecision; text-rendering:geometricPrecision; image-rendering:optimizeQuality; fill-rule:evenodd; clip-rule:evenodd"
viewBox="0 0 2048 2048"
 xmlns:xlink="http://www.w3.org/1999/xlink">
 <defs>
  <style type="text/css">
   <![CDATA[
    .fil2 {fill:none}
    .fil3 {fill:#F57F17}
    .fil4 {fill:#F9A825}
    .fil1 {fill:#FBC02D}
    .fil0 {fill:#F57F17;fill-rule:nonzero}
   ]]>
  </style>
 </defs>
 <g id="Layer_x0020_1">
  <metadata id="CorelCorpID_0Corel-Layer"/>
  <path class="fil0" d="M671.938 673.975l-123.829 0.111024c-6.94253,-2.51929 -14.048,-2.46851 -20.5016,-0.50315 -4.22953,1.2874 -8.12481,3.39922 -11.4461,6.13937 -3.38859,2.79803 -6.2256,6.2315 -8.27717,10.1079 -3.78544,7.15867 -5.01142,15.8244 -2.27126,24.8244l36.0355 118.309 4.92166 16.161 16.0996 -4.95827c7.67599,-2.36457 15.5398,-4.16457 23.5736,-5.39292 7.8319,-1.19764 15.7323,-1.79882 23.6847,-1.79882 8.3067,0 16.311,0.597638 23.9965,1.78819 7.83544,1.21536 15.8126,3.08977 23.9162,5.62323l16.2567 5.08111 4.89685 -16.35 35.5548 -118.716c2.67166,-8.92205 1.42323,-17.5417 -2.36103,-24.6933 -2.06339,-3.9 -4.90985,-7.34056 -8.30197,-10.1268 -3.42284,-2.81221 -7.35473,-4.94528 -11.5512,-6.20197 -6.40749,-1.92047 -13.4705,-1.93583 -20.3965,0.596457z"/>
  <path class="fil0" d="M1408.06 673.975l123.829 0.111024c6.94253,-2.51929 14.048,-2.46851 20.5016,-0.50315 4.22953,1.2874 8.12481,3.39922 11.4461,6.13937 3.38859,2.79803 6.2256,6.2315 8.27717,10.1079 3.78544,7.15867 5.01142,15.8244 2.27126,24.8244l-36.0355 118.309 -4.92166 16.161 -16.0996 -4.95827c-7.67599,-2.36457 -15.5398,-4.16457 -23.5736,-5.39292 -7.8319,-1.19764 -15.7323,-1.79882 -23.6847,-1.79882 -8.3067,0 -16.311,0.597638 -23.9965,1.78819 -7.83544,1.21536 -15.8126,3.08977 -23.9162,5.62323l-16.2567 5.08111 -4.89685 -16.35 -35.5548 -118.716c-2.67166,-8.92205 -1.42323,-17.5417 2.36103,-24.6933 2.06339,-3.9 4.90985,-7.34056 8.30197,-10.1268 3.42284,-2.81221 7.35473,-4.94528 11.5512,-6.20197 6.40749,-1.92047 13.4705,-1.93583 20.3965,0.596457z"/>
  <path class="fil0" d="M1039.82 515.056l1.0878 0.0011811 92.1615 0.0826772c10.4528,-3.79252 21.1488,-3.71575 30.8634,-0.757087 6.36851,1.93937 12.2315,5.11772 17.2311,9.24331 5.10119,4.21063 9.37324,9.38032 12.4606,15.2162 5.7,10.7764 7.54371,23.8217 3.41929,37.3701l-54.2469 178.103 -7.41024 24.3295 -24.2362 -7.46457c-11.5571,-3.55985 -23.3941,-6.2693 -35.4874,-8.11772 -11.5724,-1.77047 -23.2429,-2.6752 -34.9878,-2.70827l-0.667323 -0.0011811 -0.187795 0 0 -245.297z"/>
  <path class="fil0" d="M946.657 514.973l93.1631 0.0826772 0 245.297c-12.4382,0.00944883 -24.4252,0.90945 -35.9374,2.69292 -11.7957,1.82835 -23.8051,4.65118 -36.0036,8.46379l-24.4736 7.65001 -7.37127 -24.6142 -53.5229 -178.716c-4.02284,-13.4303 -2.1437,-26.4059 3.55276,-37.1729 3.1063,-5.87008 7.39253,-11.0516 12.4984,-15.2457 5.15315,-4.23307 11.0705,-7.44331 17.3894,-9.33544 9.64489,-2.89134 20.2784,-2.91378 30.7051,0.897638z"/>
  <path class="fil1" d="M1039.82 1573.95l-0.00236221 0c-109.831,0 -209.862,-12.4618 -283.783,-53.1225 -77.6552,-42.7146 -125.686,-114.413 -125.686,-231.258 0,-118.585 51.2575,-263.299 132.743,-372.018 72.469,-96.6851 169.28,-165.808 276.725,-165.808l0.00236221 0 0 822.206z"/>
  <path class="fil1" d="M1316.55 917.553c81.4867,108.719 132.745,253.432 132.745,372.018 0,116.844 -48.0319,188.543 -125.688,231.258 -73.9005,40.65 -173.9,53.1166 -283.697,53.1225l-0.0850394 0 0 -822.206 0.863386 0.00826772c107.1,0.370866 203.589,69.3756 275.862,165.8z"/>
  <rect class="fil2" width="2048" height="2048"/>
  <rect class="fil2" x="255.999" y="255.999" width="1536" height="1536"/>
  <rect class="fil2" x="255.999" y="255.999" width="1536" height="1536"/>
  <path class="fil3" d="M1080.26 1302.56l0 27.7583c0,8.97402 -7.27323,16.2508 -16.2461,16.2508l-14.0055 0c-8.97402,0 -16.2473,-7.27678 -16.2473,-16.2508l0 -25.2709c-19.3488,-2.37402 -42.587,-9.46772 -61.7634,-22.1929 -6.99804,-4.64292 -9.01182,-14.2524 -4.49882,-21.3295l14.4579 -22.6642c4.5626,-7.15394 14.0433,-9.37678 21.2504,-4.89804 16.6181,10.324 30.6461,14.6256 44.6693,14.6256 20.7614,0 29.0622,-7.05945 29.0622,-23.2536 0,-33.2138 -107.114,-37.7811 -107.114,-110.436 0,-41.9303 23.6634,-70.9914 63.9367,-79.7127l0 -27.6142c0,-8.59725 6.96851,-15.5622 15.5634,-15.5622l15.3732 0c8.59843,0 15.5622,6.96497 15.5622,15.5622l0 26.7827c20.3658,3.23386 36.9567,12.0024 51.1441,23.9587 6.66497,5.62087 7.50827,15.574 1.79764,22.1599l-15.6732 18.0697c-5.23583,6.0378 -14.2169,7.24607 -20.7555,2.65512 -10.6465,-7.47284 -20.7685,-11.2075 -32.2878,-11.2075 -17.8547,0 -26.5701,4.98071 -26.5701,21.5882 0,31.5508 107.114,33.215 107.114,108.775 0,40.2709 -21.1748,71.8253 -64.7693,82.206z"/>
  <path class="fil4" d="M1660.58 939.973c54.1288,72.2186 88.1788,168.347 88.1788,247.121 0,77.6162 -31.9063,125.244 -83.4922,153.618 -49.1008,27.0095 -115.551,35.2878 -188.509,35.2878 -16.3335,0 -32.3398,-0.416929 -47.8996,-1.36417 6.22678,-26.6481 9.19016,-55.0926 9.19016,-85.0642 0,-126.451 -52.7091,-267.757 -126.05,-373.075 45.4914,-51.6473 102.431,-86.6646 164.759,-86.6646 71.3729,0 135.684,45.9166 183.822,110.141z"/>
  <path class="fil4" d="M419.419 939.973c-54.1288,72.2186 -88.1788,168.347 -88.1788,247.121 0,77.6162 31.9063,125.244 83.4922,153.618 49.1008,27.0095 115.551,35.2878 188.509,35.2878 16.3335,0 32.3398,-0.416929 47.8996,-1.36417 -6.22678,-26.6481 -9.19016,-55.0926 -9.19016,-85.0642 0,-126.451 52.7091,-267.757 126.05,-373.075 -45.4914,-51.6473 -102.431,-86.6646 -164.759,-86.6646 -71.3729,0 -135.684,45.9166 -183.822,110.141z"/>
  <path class="fil3" d="M609.857 1195.73l0 18.4382c0,5.96221 -4.83071,10.7953 -10.7917,10.7953l-9.30355 0c-5.96103,0 -10.7929,-4.83307 -10.7929,-10.7953l0 -16.7858c-12.8528,-1.57795 -28.2886,-6.28937 -41.0268,-14.7425 -4.65,-3.08504 -5.98701,-9.46654 -2.98819,-14.1685l9.60237 -15.0555c3.03189,-4.75158 9.32953,-6.22914 14.1165,-3.25394 11.0398,6.85867 20.3575,9.71576 29.6729,9.71576 13.7906,0 19.3051,-4.69016 19.3051,-15.4465 0,-22.063 -71.1532,-25.0973 -71.1532,-73.3595 0,-27.8528 15.7193,-47.1579 42.4713,-52.95l0 -18.3449c0,-5.71063 4.62992,-10.3358 10.3394,-10.3358l10.2106 0c5.71182,0 10.3382,4.6252 10.3382,10.3358l0 17.7921c13.5284,2.14843 24.5492,7.97245 33.9733,15.9142 4.42678,3.73347 4.9878,10.3465 1.1941,14.7201l-10.4114 12.0036c-3.47717,4.01103 -9.44292,4.81418 -13.787,1.76457 -7.07127,-4.96418 -13.7953,-7.44568 -21.4477,-7.44568 -11.8595,0 -17.6492,3.30945 -17.6492,14.341 0,20.9587 71.152,22.0642 71.152,72.2564 0,26.7508 -14.0658,47.7107 -43.024,54.6071z"/>
  <path class="fil3" d="M1503.63 1195.73l0 18.4382c0,5.96221 -4.83071,10.7953 -10.7917,10.7953l-9.30355 0c-5.96103,0 -10.7929,-4.83307 -10.7929,-10.7953l0 -16.7858c-12.8528,-1.57795 -28.2886,-6.28937 -41.0268,-14.7425 -4.65,-3.08504 -5.98701,-9.46654 -2.98819,-14.1685l9.60237 -15.0555c3.03189,-4.75158 9.32953,-6.22914 14.1165,-3.25394 11.0398,6.85867 20.3575,9.71576 29.6729,9.71576 13.7906,0 19.3051,-4.69016 19.3051,-15.4465 0,-22.063 -71.1532,-25.0973 -71.1532,-73.3595 0,-27.8528 15.7193,-47.1579 42.4713,-52.95l0 -18.3449c0,-5.71063 4.62992,-10.3358 10.3394,-10.3358l10.2106 0c5.71182,0 10.3382,4.6252 10.3382,10.3358l0 17.7921c13.5284,2.14843 24.5492,7.97245 33.9733,15.9142 4.42678,3.73347 4.9878,10.3465 1.1941,14.7201l-10.4114 12.0036c-3.47717,4.01103 -9.44292,4.81418 -13.787,1.76457 -7.07127,-4.96418 -13.7953,-7.44568 -21.4477,-7.44568 -11.8595,0 -17.6492,3.30945 -17.6492,14.341 0,20.9587 71.152,22.0642 71.152,72.2564 0,26.7508 -14.0658,47.7107 -43.024,54.6071z"/>
 </g>
</svg>
