<?xml version="1.0" encoding="UTF-8"?>
<!DOCTYPE svg PUBLIC "-//W3C//DTD SVG 1.1//EN" "http://www.w3.org/Graphics/SVG/1.1/DTD/svg11.dtd">
<!-- Creator: CorelDRAW -->
<svg xmlns="http://www.w3.org/2000/svg" xml:space="preserve" width="2048px" height="2048px" style="shape-rendering:geometricPrecision; text-rendering:geometricPrecision; image-rendering:optimizeQuality; fill-rule:evenodd; clip-rule:evenodd"
viewBox="0 0 2048 2048"
 xmlns:xlink="http://www.w3.org/1999/xlink">
 <defs>
  <style type="text/css">
   <![CDATA[
    .fil0 {fill:none}
    .fil3 {fill:#C62828}
    .fil1 {fill:#D32F2F}
    .fil2 {fill:#EF5350}
    .fil6 {fill:#FBC02D}
    .fil4 {fill:#FDD835}
    .fil5 {fill:#FFEE58}
   ]]>
  </style>
 </defs>
 <g id="Layer_x0020_1">
  <metadata id="CorelCorpID_0Corel-Layer"/>
  <rect class="fil0" width="2048" height="2048"/>
  <rect class="fil0" x="255.999" y="255.999" width="1536" height="1536"/>
  <rect class="fil0" x="255.999" y="255.999" width="1536" height="1536"/>
  <rect class="fil0" x="255.999" y="255.999" width="1536" height="1536"/>
  <g id="_341844336">
   <polygon id="_344325960" class="fil1" points="1538.8,419.795 1538.8,488.972 571.704,1674.56 500.689,1674.56 500.689,1792 1676.25,1792 1676.25,419.795 "/>
   <polygon id="_344325816" class="fil2" points="1582.73,255.999 371.751,255.999 371.751,1700.97 1582.73,1700.97 "/>
   <polygon id="_344325672" class="fil3" points="1059.72,755.082 1454.5,755.082 1454.5,831.277 1059.72,831.277 "/>
   <polygon id="_344325528" class="fil1" points="1059.72,524.95 1454.5,524.95 1454.5,601.145 1059.72,601.145 "/>
   <polygon id="_344325384" class="fil3" points="1059.72,985.203 1454.5,985.203 1454.5,1061.4 1059.72,1061.4 "/>
   <polygon id="_344325240" class="fil3" points="502.944,1445.46 1454.5,1445.46 1454.5,1521.65 502.944,1521.65 "/>
   <polygon id="_341845488" class="fil3" points="1059.72,1215.34 1454.5,1215.34 1454.5,1291.53 1059.72,1291.53 "/>
   <polygon id="_341845368" class="fil4" points="451.202,764.189 982.729,764.189 982.729,1224.23 727.837,1309.86 451.202,1215.73 "/>
   <path id="_341845224" class="fil5" d="M716.971 1275.78c-118.127,0 -217.342,-36.4051 -262.661,-89.8489 -2.63504,7.5189 -4.25079,15.2126 -4.25079,23.1177 0,73.6713 119.504,133.46 266.912,133.46 147.408,0 266.913,-59.7886 266.913,-133.46 0,-7.90512 -1.65236,-15.5988 -4.25079,-23.1177 -45.3201,53.4437 -144.543,89.8489 -262.662,89.8489z"/>
   <path id="_341845080" class="fil5" d="M716.971 1186.8c-118.127,0 -217.342,-36.3945 -262.661,-89.8312 -2.63504,7.51064 -4.25079,15.1949 -4.25079,23.1012 0,73.6808 119.504,133.46 266.912,133.46 147.408,0 266.913,-59.7792 266.913,-133.46 0,-7.90631 -1.65236,-15.5906 -4.25079,-23.1012 -45.3201,53.4367 -144.543,89.8312 -262.662,89.8312z"/>
   <path id="_341844936" class="fil5" d="M716.971 1097.83c-118.127,0 -217.342,-36.404 -262.661,-89.8406 -2.63504,7.51064 -4.25079,15.2043 -4.25079,23.1201 0,73.6701 119.504,133.452 266.912,133.452 147.408,0 266.913,-59.7815 266.913,-133.452 0,-7.92402 -1.65236,-15.6095 -4.25079,-23.1201 -45.3201,53.4367 -144.543,89.8406 -262.662,89.8406z"/>
   <path id="_341844792" class="fil5" d="M716.971 1008.86c-118.127,0 -217.342,-36.4146 -262.661,-89.8394 -2.63504,7.51064 -4.25079,15.2043 -4.25079,23.1 0,73.689 119.504,133.461 266.912,133.461 147.408,0 266.913,-59.7721 266.913,-133.461 0,-7.90631 -1.65236,-15.5894 -4.25079,-23.1 -45.3201,53.4355 -144.543,89.8394 -262.662,89.8394z"/>
   <path id="_341844648" class="fil5" d="M979.633 830.038c2.59843,7.5189 4.25079,15.2138 4.25079,23.1284 0,73.6619 -119.505,133.452 -266.913,133.452 -147.408,0 -266.912,-59.7898 -266.912,-133.452 0,-7.91457 1.61575,-15.6095 4.25079,-23.1284 45.3189,53.4449 144.534,89.8489 262.661,89.8489 118.119,0 217.342,-36.404 262.662,-89.8489z"/>
   <path id="_341844504" class="fil5" d="M450.059 764.189c0,-73.6808 119.504,-133.46 266.912,-133.46 147.408,0 266.913,59.7792 266.913,133.46 0,73.6713 -119.505,133.46 -266.913,133.46 -147.408,0 -266.912,-59.7886 -266.912,-133.46z"/>
   <path id="_341844408" class="fil6" d="M765.018 793.827c0,4.42559 -3.72874,8.23583 -11.211,11.3669 -7.46457,3.17599 -19.1894,4.73741 -35.054,4.73741 -33.926,0 -53.9044,-7.32756 -59.9552,-22.0169l-65.1603 6.77599c13.1575,23.3669 47.276,36.1843 102.4,38.4425l0 20.0339 42.1335 0 0 -20.126c33.0614,-1.38662 58.3382,-6.03189 75.8469,-13.8638 17.5181,-7.84961 26.2866,-17.6185 26.2866,-29.4532 0,-7.63938 -4.26851,-14.3327 -12.7252,-20.0717 -8.51103,-5.69292 -19.8603,-10.2095 -34.1091,-13.4504 -14.2039,-3.23268 -33.8339,-6.70276 -58.8532,-10.3465 -22.7788,-3.33425 -37.6701,-6.17953 -44.5843,-8.42953 -6.95079,-2.26772 -10.4209,-5.52638 -10.4209,-9.73229 0,-4.16929 3.59882,-7.73977 10.8248,-10.65 7.15158,-2.91142 16.7197,-4.38898 28.6276,-4.38898 23.7059,0 41.1697,6.56457 52.5083,19.6477l58.0536 -9.55749c-13.8626,-19.0512 -44.3646,-29.7201 -91.4552,-31.989l0 -15.5339 -42.1335 0 0 15.5445c-31.1988,1.77992 -54.0508,6.60119 -68.5678,14.4697 -14.4957,7.85906 -21.7961,16.774 -21.7961,26.6256 0,7.47402 4.08544,14.0752 12.202,19.7587 8.13426,5.65512 18.7217,10.0536 31.7587,13.1847 13.0288,3.12166 31.1339,6.34371 54.2894,9.54804 25.7729,3.64488 42.4181,6.60119 49.8827,9.04371 7.48229,2.33268 11.211,5.81221 11.211,10.4303z"/>
  </g>
 </g>
</svg>
