<?xml version="1.0" encoding="UTF-8"?>
<!DOCTYPE svg PUBLIC "-//W3C//DTD SVG 1.1//EN" "http://www.w3.org/Graphics/SVG/1.1/DTD/svg11.dtd">
<!-- Creator: CorelDRAW -->
<svg xmlns="http://www.w3.org/2000/svg" xml:space="preserve" width="2048px" height="2048px" style="shape-rendering:geometricPrecision; text-rendering:geometricPrecision; image-rendering:optimizeQuality; fill-rule:evenodd; clip-rule:evenodd"
viewBox="0 0 2048 2048"
 xmlns:xlink="http://www.w3.org/1999/xlink">
 <defs>
  <style type="text/css">
   <![CDATA[
    .fil0 {fill:none}
    .fil3 {fill:#26A69A}
    .fil5 {fill:#4DB6AC}
    .fil1 {fill:#EF5350}
    .fil4 {fill:#F9A825}
    .fil2 {fill:#FBC02D}
   ]]>
  </style>
 </defs>
 <g id="Layer_x0020_1">
  <metadata id="CorelCorpID_0Corel-Layer"/>
  <rect class="fil0" width="2048" height="2048"/>
  <rect class="fil0" x="255.999" y="255.999" width="1536" height="1536"/>
  <rect class="fil0" x="256" y="256" width="1536" height="1536"/>
  <rect class="fil0" x="256" y="256" width="1536" height="1536"/>
  <path class="fil1" d="M930.145 255.999l187.719 0c32.6551,0 59.3599,26.7047 59.3599,59.3599l0 187.719c0,32.6551 -26.7047,59.3599 -59.3599,59.3599l-187.719 0c-32.6551,0 -59.3587,-26.7047 -59.3587,-59.3599l0 -187.719c0,-32.6551 26.7036,-59.3599 59.3587,-59.3599z"/>
  <path class="fil2" d="M1541.56 1487.96l-1035.14 0c-26.1874,0 -46.3878,20.2276 -46.3878,46.415 0,26.0906 20.2004,46.389 46.3878,46.389l1035.14 0c26.1957,0 46.4138,-20.2984 46.4138,-46.389 0,-26.1874 -20.2181,-46.415 -46.4138,-46.415z"/>
  <path class="fil3" d="M1541.56 1071.15l-1035.14 0c-26.1874,0 -46.3878,20.2984 -46.3878,46.415 0,26.1874 20.2004,47.2654 46.3878,47.2654l1035.14 0c26.1957,0 46.4138,-21.078 46.4138,-47.2654 0,-26.1166 -20.2181,-46.415 -46.4138,-46.415z"/>
  <path class="fil3" d="M506.417 748.114l1035.14 0c26.1957,0 46.4138,-20.315 46.4138,-46.415 0,-24.5221 -20.2181,-47.2559 -46.4138,-47.2559l-1035.14 0c-26.1874,0 -46.3878,22.7421 -46.3878,47.2559 0,26.1 20.2004,46.415 46.3878,46.415z"/>
  <path class="fil4" d="M1345.85 1696.31l-644.506 0c-26.1957,0 -46.4055,21.1122 -46.4055,47.2122 0,26.1874 20.2099,46.3796 46.4055,46.3796l644.506 0c26.1083,0 46.4233,-20.1921 46.4233,-46.3796 0,-26.1 -20.3244,-47.2122 -46.4233,-47.2122z"/>
  <path class="fil4" d="M1345.85 1373.2c26.1083,0 46.4233,-20.2276 46.4233,-46.415 0,-26.0906 -20.3244,-46.3796 -46.4233,-46.3796l-644.506 0c-26.1957,0 -46.4055,20.289 -46.4055,46.3796 0,26.1874 20.2099,46.415 46.4055,46.415l644.506 0z"/>
  <path class="fil5" d="M701.349 863.651c-26.1957,0 -46.4055,21.104 -46.4055,47.2134 0,26.1862 20.2099,46.4055 46.4055,46.4055l644.506 0c26.1083,0 46.4233,-20.2193 46.4233,-46.4055 0,-26.1095 -20.3244,-47.2134 -46.4233,-47.2134l-644.506 0z"/>
 </g>
</svg>
