<?xml version="1.0" encoding="UTF-8"?>
<!DOCTYPE svg PUBLIC "-//W3C//DTD SVG 1.1//EN" "http://www.w3.org/Graphics/SVG/1.1/DTD/svg11.dtd">
<!-- Creator: CorelDRAW -->
<svg xmlns="http://www.w3.org/2000/svg" xml:space="preserve" width="2048px" height="2048px" style="shape-rendering:geometricPrecision; text-rendering:geometricPrecision; image-rendering:optimizeQuality; fill-rule:evenodd; clip-rule:evenodd"
viewBox="0 0 2048 2048"
 xmlns:xlink="http://www.w3.org/1999/xlink">
 <defs>
  <style type="text/css">
   <![CDATA[
    .fil0 {fill:none}
    .fil1 {fill:#00B0FF}
    .fil4 {fill:#01579B}
    .fil3 {fill:#0277BD}
    .fil5 {fill:#558B2F}
    .fil2 {fill:#81D4FA}
    .fil7 {fill:#F9A825}
    .fil8 {fill:#FFB74D}
    .fil6 {fill:white}
   ]]>
  </style>
 </defs>
 <g id="Layer_x0020_1">
  <metadata id="CorelCorpID_0Corel-Layer"/>
  <rect class="fil0" width="2048" height="2048"/>
  <rect class="fil0" x="255.999" y="255.999" width="1536" height="1536"/>
  <rect class="fil0" x="256" y="256" width="1536" height="1536"/>
  <rect class="fil0" x="256" y="256" width="1536" height="1536"/>
  <g id="_342651072">
   <polygon id="_342651384" class="fil1" points="1463.02,800.206 257.106,800.206 257.106,1254.88 1463.02,1254.88 "/>
   <g>
    <path id="_342651312" class="fil2" d="M1212.62 1118.96c-50.4107,0 -91.5331,-40.9252 -91.5331,-91.2946 0,-50.6067 40.9677,-91.532 91.5331,-91.532 50.5642,0 91.532,40.9252 91.532,91.532 0,50.3693 -40.9677,91.2946 -91.532,91.2946z"/>
    <path id="_342651192" class="fil2" d="M863.572 1119.94c-50.4248,0 -91.3501,-40.924 -91.3501,-91.5308 0,-50.3681 40.9252,-91.2934 91.3501,-91.2934 50.5642,0 91.4894,40.9252 91.4894,91.2934 0,50.6067 -40.9252,91.5308 -91.4894,91.5308z"/>
    <path id="_342651216" class="fil2" d="M526.433 1119.94c-50.3681,0 -91.4906,-40.924 -91.4906,-91.5308 0,-50.3681 40.9264,-91.2934 91.4906,-91.2934 50.6067,0 91.532,40.9252 91.532,91.2934 0,50.6067 -40.9252,91.5308 -91.532,91.5308z"/>
   </g>
  </g>
  <g id="_342650736">
   <polygon id="_342651000" class="fil3" points="1463.02,305.401 257.106,305.401 257.106,760.075 1463.02,760.075 "/>
   <path id="_342650928" class="fil4" d="M1212.62 624.158c-50.4107,0 -91.5331,-40.924 -91.5331,-91.2934 0,-50.6067 40.9677,-91.532 91.5331,-91.532 50.5642,0 91.532,40.9252 91.532,91.532 0,50.3693 -40.9677,91.2934 -91.532,91.2934z"/>
   <path id="_342650832" class="fil4" d="M863.572 625.138c-50.4248,0 -91.3501,-40.924 -91.3501,-91.5308 0,-50.3681 40.9252,-91.2934 91.3501,-91.2934 50.5642,0 91.4894,40.9252 91.4894,91.2934 0,50.6067 -40.9252,91.5308 -91.4894,91.5308z"/>
   <path id="_342650784" class="fil4" d="M526.433 625.138c-50.3681,0 -91.4906,-40.924 -91.4906,-91.5308 0,-50.3681 40.9264,-91.2934 91.4906,-91.2934 50.6067,0 91.532,40.9252 91.532,91.2934 0,50.6067 -40.9252,91.5308 -91.532,91.5308z"/>
  </g>
  <g id="_342650400">
   <polygon id="_342650664" class="fil3" points="1463.02,1287.9 257.106,1287.9 257.106,1742.57 1463.02,1742.57 "/>
   <path id="_342650592" class="fil4" d="M1212.62 1606.65c-50.4107,0 -91.5331,-40.924 -91.5331,-91.2934 0,-50.6067 40.9677,-91.532 91.5331,-91.532 50.5642,0 91.532,40.9252 91.532,91.532 0,50.3693 -40.9677,91.2934 -91.532,91.2934z"/>
   <path id="_342650496" class="fil4" d="M863.572 1607.63c-50.4248,0 -91.3501,-40.924 -91.3501,-91.5308 0,-50.3681 40.9252,-91.2934 91.3501,-91.2934 50.5642,0 91.4894,40.9252 91.4894,91.2934 0,50.6067 -40.9252,91.5308 -91.4894,91.5308z"/>
   <path id="_342650376" class="fil4" d="M526.433 1607.63c-50.3681,0 -91.4906,-40.924 -91.4906,-91.5308 0,-50.3681 40.9264,-91.2934 91.4906,-91.2934 50.6067,0 91.532,40.9252 91.532,91.2934 0,50.6067 -40.9252,91.5308 -91.532,91.5308z"/>
  </g>
  <line class="fil5" x1="1412.94" y1="753.56" x2="1412.94" y2= "753.56" />
  <line class="fil5" x1="1316.45" y1="717.632" x2="1316.45" y2= "717.632" />
  <line class="fil5" x1="1130.52" y1="1219.62" x2="1130.52" y2= "1219.62" />
  <line class="fil5" x1="1476.12" y1="1347.28" x2="1476.12" y2= "1347.28" />
  <line class="fil5" x1="1572.84" y1="1383.45" x2="1572.84" y2= "1383.45" />
  <line class="fil5" x1="1613.7" y1="1364.65" x2="1613.7" y2= "1364.65" />
  <line class="fil5" x1="1649.83" y1="1267.95" x2="1649.83" y2= "1267.95" />
  <g id="_342648744">
   <circle id="_342649104" class="fil6" cx="1339.24" cy="1034.39" r="176.903"/>
   <g>
    <path id="_342648960" class="fil7" d="M1328.06 1263.78l0.0838583 0c14.3776,0.00944883 28.8461,-1.28858 43.2768,-3.93898l13.7693 29.8311c8.563,18.6839 30.7406,26.8583 49.3926,18.2622l37.8815 -17.4189c18.6496,-8.59843 26.8264,-30.7736 18.2622,-49.4256l-13.8036 -29.8607c18.0721,-14.648 33.6449,-31.611 46.4788,-50.3622l30.8729 11.4449c18.6496,6.9189 40.9512,-3.35906 47.8689,-22.011l14.413 -39.1453c3.45945,-9.34253 3.07087,-19.4551 -1.09961,-28.4752 -4.17048,-9.05198 -11.6339,-15.9354 -20.9091,-19.3276l-30.9307 -11.4437c2.44843,-22.5319 1.64646,-45.5776 -2.62441,-68.4319l29.8961 -13.7362c18.652,-8.59843 26.8358,-30.7666 18.2374,-49.3831l-17.426 -37.9134c-8.59607,-18.6201 -30.7736,-26.8358 -49.4233,-18.2374l-29.863 13.7681c-14.6386,-18.0957 -31.6099,-33.6437 -50.3268,-46.4457l11.4118 -30.8965c3.45591,-9.34253 3.06733,-19.4634 -1.10315,-28.5083 -4.13504,-9.01772 -11.5984,-15.9024 -20.9079,-19.363l-39.1158 -14.4461c-9.34253,-3.42638 -19.454,-3.0437 -28.4717,1.0937 -9.05434,4.17048 -15.939,11.6079 -19.363,20.9504l-11.4437 30.9307c-8.113,-0.884646 -16.2898,-1.34646 -24.502,-1.37717l-0.531496 -0.0011811 0 89.6198 0.447638 0.00472441c57.1382,0.205512 109.407,33.7654 133.323,85.6784 33.9662,73.767 1.61221,161.421 -72.1465,195.397 -19.4622,8.97402 -40.154,13.5248 -61.4552,13.5366l-0.0838583 0 -0.0850394 -0.0011811 0 89.6327z"/>
    <path id="_342648840" class="fil8" d="M1061.58 990.372l30.9319 11.4012c-2.45788,22.565 -1.64646,45.5433 2.58898,68.4319l-29.8701 13.7362c-18.6532,8.563 -26.8264,30.7701 -18.2303,49.4552l17.4189 37.8485c8.60552,18.652 30.7406,26.8595 49.3926,18.2622l29.8937 -13.8012c14.648,18.0969 31.6181,33.6449 50.3032,46.4776l-11.4106 30.9071c-7.08426,19.2614 2.77914,40.7197 22.0429,47.8359l39.1051 14.4791c18.652,6.85158 40.9607,-3.4252 47.8453,-22.0429l11.4024 -30.939c8.30906,0.894095 16.6736,1.34764 25.0701,1.35709l0 -89.6327c-57.3107,-0.0318898 -109.83,-33.6355 -133.799,-85.6501 -33.9425,-73.8249 -1.58858,-161.454 72.1465,-195.454 19.5532,-8.95276 40.2414,-13.513 61.5721,-13.513l0.080315 0.0011811 0 -89.6198c-14.4118,-0.0200788 -28.9288,1.2874 -43.389,3.95906l-13.7362 -29.8618c-8.60552,-18.652 -30.7736,-26.8618 -49.4256,-18.2622l-37.8485 17.4508c-18.6851,8.59607 -26.8323,30.7406 -18.2268,49.4233l13.7339 29.8642c-18.0709,14.6457 -33.652,31.5851 -46.4528,50.2996l-30.8977 -11.4413c-9.34253,-3.42638 -19.461,-3.0378 -28.5059,1.12441 -9.02127,4.16929 -15.9047,11.6102 -19.3299,20.9197l-14.4484 39.1382c-7.11615,19.2307 2.7815,40.728 22.0429,47.8453z"/>
   </g>
  </g>
 </g>
</svg>
