<?xml version="1.0" encoding="UTF-8"?>
<!DOCTYPE svg PUBLIC "-//W3C//DTD SVG 1.1//EN" "http://www.w3.org/Graphics/SVG/1.1/DTD/svg11.dtd">
<!-- Creator: CorelDRAW -->
<svg xmlns="http://www.w3.org/2000/svg" xml:space="preserve" width="2048px" height="2048px" style="shape-rendering:geometricPrecision; text-rendering:geometricPrecision; image-rendering:optimizeQuality; fill-rule:evenodd; clip-rule:evenodd"
viewBox="0 0 2048 2048"
 xmlns:xlink="http://www.w3.org/1999/xlink">
 <defs>
  <style type="text/css">
   <![CDATA[
    .fil0 {fill:none}
    .fil4 {fill:#039BE5}
    .fil5 {fill:#29B6F6}
    .fil2 {fill:#D32F2F}
    .fil3 {fill:#EF5350}
    .fil1 {fill:#F9A825;fill-rule:nonzero}
   ]]>
  </style>
 </defs>
 <g id="Layer_x0020_1">
  <metadata id="CorelCorpID_0Corel-Layer"/>
  <rect class="fil0" width="2048" height="2048"/>
  <rect class="fil0" x="255.999" y="255.999" width="1536" height="1536"/>
  <rect class="fil0" x="255.999" y="255.999" width="1536" height="1536"/>
  <polygon class="fil1" points="681.504,795.603 681.504,988.809 617.502,988.809 617.502,795.603 "/>
  <polygon class="fil1" points="1365.51,795.603 1365.51,988.809 1301.51,988.809 1301.51,795.603 "/>
  <path class="fil1" d="M448 1211.58l0 -118.721c0,-31.4918 16.0866,-59.5252 42,-79.317 23.4768,-17.9303 55.3666,-29.0622 90.0001,-29.0622l888.002 0c34.6335,0 66.5233,11.1319 90.0001,29.0622 25.9134,19.7917 42,47.8252 42,79.317l0 118.748 -64.0016 0 0 -118.748c0,-10.5165 -6.41457,-20.6752 -16.748,-28.5673 -12.7713,-9.75473 -30.8835,-15.8102 -51.2504,-15.8102l-888.002 0c-20.3669,0 -38.4792,6.05552 -51.2504,15.8102 -10.3335,7.89213 -16.748,18.0508 -16.748,28.5673l0 118.721 -64.0016 0z"/>
  <polygon class="fil1" points="1056,1016.48 1056,1211.6 991.999,1211.6 991.999,1016.48 "/>
  <path class="fil2" d="M1120.37 743.642l447.29 0c4.01339,-88.3961 -26.6941,-164.04 -109.187,-211.674l-4.20473 -2.42008 -3.41811 3.51378c-28.2343,29.5937 -66.1725,45.9449 -106.872,45.9449 -40.6784,0 -78.6166,-16.3512 -106.851,-45.9449l-3.35551 -3.51378 -4.27796 2.42008c-82.4079,47.6658 -113.275,123.278 -109.123,211.674z"/>
  <path class="fil3" d="M1344 548.809c-73.9879,0 -134.182,-60.2056 -134.182,-134.192 0,-74.0623 60.1937,-134.256 134.182,-134.256 73.9973,0 134.192,60.1937 134.192,134.182 0,73.9973 -60.1949,134.267 -134.192,134.267z"/>
  <path class="fil2" d="M416.366 743.642l447.29 0c4.01339,-88.3961 -26.6941,-164.04 -109.187,-211.674l-4.20473 -2.42008 -3.41811 3.51378c-28.2343,29.5937 -66.1725,45.9449 -106.872,45.9449 -40.6784,0 -78.6166,-16.3512 -106.851,-45.9449l-3.35551 -3.51378 -4.27796 2.42008c-82.4079,47.6658 -113.275,123.278 -109.123,211.674z"/>
  <path class="fil3" d="M639.995 548.809c-73.9879,0 -134.182,-60.2056 -134.182,-134.192 0,-74.0623 60.1937,-134.256 134.182,-134.256 73.9973,0 134.192,60.1937 134.192,134.182 0,73.9973 -60.1949,134.267 -134.192,134.267z"/>
  <path class="fil4" d="M1344.37 1767.64l447.29 0c4.01339,-88.3961 -26.6941,-164.04 -109.187,-211.674l-4.20473 -2.42008 -3.41811 3.51378c-28.2343,29.5937 -66.1725,45.9449 -106.872,45.9449 -40.6784,0 -78.6166,-16.3512 -106.851,-45.9449l-3.35551 -3.51378 -4.27796 2.42008c-82.4079,47.6658 -113.275,123.278 -109.123,211.674z"/>
  <path class="fil5" d="M1568 1572.81c-73.9879,0 -134.182,-60.2056 -134.182,-134.192 0,-74.0623 60.1937,-134.256 134.182,-134.256 73.9973,0 134.192,60.1937 134.192,134.182 0,73.9973 -60.1949,134.267 -134.192,134.267z"/>
  <path class="fil4" d="M256.366 1767.64l447.29 0c4.01339,-88.3961 -26.6941,-164.04 -109.187,-211.674l-4.20473 -2.42008 -3.41811 3.51378c-28.2343,29.5937 -66.1725,45.9449 -106.872,45.9449 -40.6784,0 -78.6166,-16.3512 -106.851,-45.9449l-3.35551 -3.51378 -4.27796 2.42008c-82.4079,47.6658 -113.275,123.278 -109.123,211.674z"/>
  <path class="fil5" d="M479.994 1572.81c-73.9879,0 -134.182,-60.2056 -134.182,-134.192 0,-74.0623 60.1937,-134.256 134.182,-134.256 73.9973,0 134.192,60.1937 134.192,134.182 0,73.9973 -60.1949,134.267 -134.192,134.267z"/>
  <path class="fil4" d="M800.366 1767.64l447.29 0c4.01339,-88.3961 -26.6941,-164.04 -109.187,-211.674l-4.20473 -2.42008 -3.41811 3.51378c-28.2343,29.5937 -66.1725,45.9449 -106.872,45.9449 -40.6784,0 -78.6166,-16.3512 -106.851,-45.9449l-3.35551 -3.51378 -4.27796 2.42008c-82.4079,47.6658 -113.275,123.278 -109.123,211.674z"/>
  <path class="fil5" d="M1024 1572.81c-73.9879,0 -134.182,-60.2056 -134.182,-134.192 0,-74.0623 60.1937,-134.256 134.182,-134.256 73.9973,0 134.192,60.1937 134.192,134.182 0,73.9973 -60.1949,134.267 -134.192,134.267z"/>
 </g>
</svg>
