<?xml version="1.0" encoding="UTF-8"?>
<!DOCTYPE svg PUBLIC "-//W3C//DTD SVG 1.1//EN" "http://www.w3.org/Graphics/SVG/1.1/DTD/svg11.dtd">
<!-- Creator: CorelDRAW -->
<svg xmlns="http://www.w3.org/2000/svg" xml:space="preserve" width="2048px" height="2048px" style="shape-rendering:geometricPrecision; text-rendering:geometricPrecision; image-rendering:optimizeQuality; fill-rule:evenodd; clip-rule:evenodd"
viewBox="0 0 2048 2048"
 xmlns:xlink="http://www.w3.org/1999/xlink">
 <defs>
  <style type="text/css">
   <![CDATA[
    .fil0 {fill:none}
    .fil4 {fill:#558B2F}
    .fil1 {fill:#616161}
    .fil2 {fill:#757575}
    .fil3 {fill:#EEEEEE}
   ]]>
  </style>
 </defs>
 <g id="Layer_x0020_1">
  <metadata id="CorelCorpID_0Corel-Layer"/>
  <rect class="fil0" width="2048" height="2048"/>
  <rect class="fil0" x="255.999" y="255.999" width="1536" height="1536"/>
  <rect class="fil0" x="256" y="256" width="1536" height="1536"/>
  <rect class="fil0" x="256" y="256" width="1536" height="1536"/>
  <path class="fil1" d="M1599.77 1647.99l0.10748 0 47.9528 0c0,0 144.165,-3.06142 144.165,-191.935l0 -864.105 -191.101 0 -1.12441 0 0 1056.04z"/>
  <path class="fil2" d="M1599.77 532.844l0 -132.832 -1343.78 0 0 1056.04c0,0 0,191.935 191.92,191.935l1151.86 0 0 -1056.04 0 -59.1036z"/>
  <path class="fil3" d="M447.919 1551.87c-95.8146,0 -95.8146,-95.8146 -95.8146,-95.8146l0 -959.919 1151.86 0 0 959.919c0,44.0469 13.5709,74.7603 32.3457,95.8146l-1088.39 0z"/>
  <polygon class="fil2" points="969.532,688.053 1407.86,688.053 1407.86,783.918 969.532,783.918 "/>
  <polygon class="fil2" points="975.94,1263.83 1312.04,1263.83 1312.04,1359.95 975.94,1359.95 "/>
  <polygon class="fil2" points="975.94,1071.91 1407.86,1071.91 1407.86,1168.01 975.94,1168.01 "/>
  <polygon class="fil2" points="975.94,879.972 1407.86,879.972 1407.86,976.092 975.94,976.092 "/>
  <polygon class="fil4" points="447.919,693.454 879.836,693.454 879.836,1259.49 447.919,1259.49 "/>
 </g>
</svg>
