<?xml version="1.0" encoding="UTF-8"?>
<!DOCTYPE svg PUBLIC "-//W3C//DTD SVG 1.1//EN" "http://www.w3.org/Graphics/SVG/1.1/DTD/svg11.dtd">
<!-- Creator: CorelDRAW -->
<svg xmlns="http://www.w3.org/2000/svg" xml:space="preserve" width="2048px" height="2048px" style="shape-rendering:geometricPrecision; text-rendering:geometricPrecision; image-rendering:optimizeQuality; fill-rule:evenodd; clip-rule:evenodd"
viewBox="0 0 2048 2048"
 xmlns:xlink="http://www.w3.org/1999/xlink">
 <defs>
  <style type="text/css">
   <![CDATA[
    .fil0 {fill:none}
    .fil1 {fill:#9CCC65}
    .fil2 {fill:#E040FB}
    .fil3 {fill:#FDD835}
    .fil4 {fill:#FFEE58}
    .fil5 {fill:#689F38;fill-rule:nonzero}
   ]]>
  </style>
 </defs>
 <g id="Layer_x0020_1">
  <metadata id="CorelCorpID_0Corel-Layer"/>
  <rect class="fil0" width="2048" height="2048"/>
  <rect class="fil0" x="255.999" y="255.999" width="1536" height="1536"/>
  <rect class="fil0" x="255.999" y="255.999" width="1536" height="1536"/>
  <rect class="fil0" x="255.999" y="255.999" width="1536" height="1536"/>
  <g id="_346591912">
   <polygon id="_346592464" class="fil1" points="1611.99,1195.65 1611.99,255.999 436.014,255.999 436.014,1792 1611.99,1792 1611.99,1438.86 "/>
   <g>
    <path id="_346592344" class="fil2" d="M705.13 807.271c6.72993,0 12.8162,-1.87677 18.4689,-4.68071l48.1595 39.3945c-0.312992,1.88032 -1.07244,3.44882 -1.07244,5.49449 0,23.3032 18.8965,42.0792 42.1949,42.0792 23.1638,0 42.0933,-18.776 42.0933,-42.0792 0,-6.73111 -1.88504,-12.8162 -4.69016,-18.4642 23.1449,-34.7138 52.7067,-79.1316 70.5544,-105.715 2.64567,0.446457 5.29134,1.56851 8.14016,1.56851 10.1658,0 19.0547,-3.92599 26.4201,-9.84804 15.7784,9.20198 36.4418,21.2587 54.1016,31.5827 0,0.604725 -0.288189,0.922442 -0.288189,1.56732 0,23.3091 18.9,42.2044 42.2091,42.2044 23.139,0 42.0839,-18.8953 42.0839,-42.2044 0,-23.302 -18.9449,-42.0886 -42.0839,-42.0886 -10.3347,0 -19.5366,4.04528 -26.902,10.1752l-53.778 -31.4339c0,-0.649607 0.277559,-1.28504 0.277559,-2.03977 0,-23.3079 -18.737,-42.0945 -42.0402,-42.0945 -23.3126,0 -42.0945,18.9508 -42.0945,42.0945 0,7.80709 2.6504,14.6917 6.40749,20.941 -22.2201,33.3142 -51.1323,76.6394 -69.1146,103.869 -3.75237,-1.07717 -7.36536,-2.36339 -11.2961,-2.36339 -8.72127,0 -16.4091,3.2811 -23.1402,7.84253 -13.2921,-10.9642 -29.8642,-24.424 -44.7248,-36.5953 1.08189,-3.60355 2.36221,-7.36536 2.36221,-11.4 0,-23.348 -18.9402,-42.0898 -42.2481,-42.0898 -23.2984,0 -42.0744,18.7417 -42.0744,42.0898 -0.168898,23.2973 18.776,42.1937 42.0744,42.1937z"/>
    <g>
     <path id="_346592224" class="fil3" d="M1481.81 1216.25l-354.632 -317.149c-15.2728,23.2654 -36.763,38.6221 -57.2575,57.9272 -1.67244,1.58032 -3.44055,3.16063 -5.2063,4.73386l359.876 324.579c8.04449,6.57284 17.6315,9.84686 27.2209,10.1327 13.5685,0.403937 27.228,-5.25473 36.4394,-16.6595 15.7807,-19.2673 12.9201,-47.7768 -6.44056,-63.5646z"/>
     <path id="_346592248" class="fil4" d="M755.164 1054.76c41.5359,17.5559 85.6064,26.4236 130.947,26.4236 45.4276,0 89.4946,-8.86772 130.941,-26.4236 37.0099,-15.6555 70.4953,-37.5532 99.7241,-65.0634 2.4437,-2.26181 4.88741,-4.61693 7.24253,-6.96733 19.1811,-19.1858 35.8347,-40.4528 49.7705,-63.3461 8.413,-14.0291 15.9248,-28.5047 22.2614,-43.6205 17.5547,-41.5347 26.4236,-85.6064 26.4236,-130.941 0,-45.3402 -8.8689,-89.4993 -26.4236,-130.945 -2.35512,-5.6067 -4.88741,-11.2181 -7.60394,-16.6488 -16.2886,-33.3922 -37.9181,-63.7075 -64.5213,-90.3119 -16.5614,-16.5614 -34.6607,-31.2225 -54.0272,-43.891 -16.7374,-10.9488 -34.3855,-20.361 -52.9347,-28.2343 -41.5394,-17.5559 -85.6064,-26.4236 -130.945,-26.4236 -45.4288,0 -89.5005,8.8689 -130.942,26.4236 -18.1914,7.69253 -35.5666,16.9228 -52.0335,27.6036 -19.7291,12.7606 -38.1024,27.5977 -54.9331,44.4331 -26.511,26.511 -48.1406,56.8276 -64.5201,90.3119 -2.62441,5.42599 -5.24882,11.0374 -7.6004,16.6488 -17.5547,41.5347 -26.4284,85.6064 -26.4284,130.941 0,45.339 8.87363,89.4993 26.4284,130.945 16.9193,40.0902 41.1733,76.0134 72.1205,106.962 30.9496,30.8599 66.9638,55.1126 107.055,72.1241zm-57.5528 -457.621c1.80709,-2.26299 3.6189,-4.52481 5.5193,-6.69922 4.34292,-5.1567 8.86772,-10.1362 13.7551,-14.9291 45.2457,-45.2469 105.334,-70.1327 169.312,-70.1327 63.9768,0 124.065,24.8858 169.224,70.1327 5.15788,5.15552 10.0441,10.4976 14.6563,16.0169 1.5437,1.89921 3.08032,3.7063 4.61811,5.7 33.0296,41.9894 50.8583,93.3863 50.8583,147.594 0.0011811,63.9768 -24.8858,124.065 -70.1327,169.312 -45.2457,45.2457 -105.336,70.1315 -169.224,70.1315 -63.8894,0 -124.067,-24.8858 -169.225,-70.1315 -45.2469,-45.2469 -70.1315,-105.336 -70.1315,-169.312 -0.0885827,-54.2965 17.8288,-105.697 50.7697,-147.683z"/>
    </g>
   </g>
   <polygon id="_346592032" class="fil5" points="578.555,1409.7 1469.44,1409.7 1469.44,1454.24 578.555,1454.24 "/>
   <polygon id="_346591984" class="fil5" points="578.555,1574.51 1469.44,1574.51 1469.44,1619.06 578.555,1619.06 "/>
  </g>
 </g>
</svg>
