<?xml version="1.0" encoding="UTF-8"?>
<!DOCTYPE svg PUBLIC "-//W3C//DTD SVG 1.1//EN" "http://www.w3.org/Graphics/SVG/1.1/DTD/svg11.dtd">
<!-- Creator: CorelDRAW -->
<svg xmlns="http://www.w3.org/2000/svg" xml:space="preserve" width="2048px" height="2048px" style="shape-rendering:geometricPrecision; text-rendering:geometricPrecision; image-rendering:optimizeQuality; fill-rule:evenodd; clip-rule:evenodd"
viewBox="0 0 2048 2048"
 xmlns:xlink="http://www.w3.org/1999/xlink">
 <defs>
  <style type="text/css">
   <![CDATA[
    .fil0 {fill:none}
    .fil5 {fill:#26A69A}
    .fil6 {fill:#4DB6AC}
    .fil3 {fill:#E53935}
    .fil4 {fill:#EF5350}
    .fil1 {fill:#F9A825}
    .fil2 {fill:#FFB74D}
   ]]>
  </style>
 </defs>
 <g id="Layer_x0020_1">
  <metadata id="CorelCorpID_0Corel-Layer"/>
  <rect class="fil0" width="2048" height="2048"/>
  <rect class="fil0" x="255.999" y="255.999" width="1536" height="1536"/>
  <rect class="fil0" x="256" y="255.999" width="1536" height="1536"/>
  <rect class="fil0" x="256" y="255.999" width="1536" height="1536"/>
  <g id="_340356952">
   <path id="_340357144" class="fil1" d="M823.556 1695.81l0.159449 0c27.3579,0.0188977 54.8871,-2.45079 82.3477,-7.4941l26.1981 56.7615c16.2945,35.5524 58.4941,51.1063 93.9839,34.7492l72.0792 -33.1429c35.4862,-16.3618 51.0449,-58.5556 34.7492,-94.0465l-26.2654 -56.8193c34.389,-27.8717 64.0193,-60.1489 88.441,-95.8276l58.7434 21.776c35.4862,13.1658 77.9209,-6.39095 91.0831,-41.8819l27.4252 -74.4851c6.58347,-17.7756 5.84292,-37.017 -2.09291,-54.1819 -7.93465,-17.2228 -22.1362,-30.3213 -39.7843,-36.776l-58.8544 -21.7748c4.65945,-42.8729 3.13347,-86.7225 -4.9937,-130.211l56.8867 -26.1366c35.4898,-16.3606 51.0615,-58.5414 34.6996,-93.965l-33.1559 -72.1418c-16.3571,-35.4284 -58.5556,-51.0626 -94.0418,-34.7008l-56.8241 26.1981c-27.854,-34.4327 -60.1453,-64.0182 -95.7603,-88.3772l21.7134 -58.7882c6.57756,-17.7768 5.83701,-37.0347 -2.09764,-54.2445 -7.86851,-17.1602 -22.0701,-30.2599 -39.7843,-36.8433l-74.4272 -27.4878c-17.7768,-6.52087 -37.017,-5.79331 -54.1772,2.07992 -17.2276,7.93465 -30.3272,22.0878 -36.8433,39.8646l-21.7748 58.8544c-15.437,-1.68425 -30.9957,-2.56181 -46.6205,-2.61969l-1.01221 -0.00236221 0 170.525 0.851575 0.00826772c108.722,0.392126 208.178,64.2497 253.686,163.028 64.63,140.363 3.06614,307.149 -137.281,371.797 -37.0311,17.0764 -76.4032,25.7351 -116.935,25.7575l-0.158268 0 -0.162992 -0.0011811 0 170.55z"/>
   <path id="_340356928" class="fil2" d="M316.497 1175.57l58.8556 21.6945c-4.67717,42.9355 -3.13347,86.6599 4.92756,130.211l-56.8382 26.1366c-35.491,16.2945 -51.0437,58.5508 -34.6866,94.1044l33.1429 72.0154c16.3748,35.491 58.493,51.1075 93.9839,34.7504l56.8819 -26.2607c27.8717,34.4327 60.1619,64.0182 95.7154,88.4363l-21.7134 58.8095c-13.4788,36.6508 5.28898,77.4792 41.9445,91.0205l74.4083 27.5504c35.491,13.037 77.9398,-6.51615 91.0383,-41.9433l21.6957 -58.8685c15.8102,1.69961 31.7268,2.56418 47.7036,2.58071l0 -170.55c-109.05,-0.0602363 -208.982,-64.0004 -254.59,-162.973 -64.5851,-140.472 -3.02126,-307.213 137.28,-371.906 37.2048,-17.0351 76.5697,-25.7114 117.157,-25.7114l0.153543 0.0011811 0 -170.525c-27.4229,-0.0389764 -55.0453,2.44843 -82.5603,7.5319l-26.1366 -56.8205c-16.3748,-35.4898 -58.5556,-51.1111 -94.0453,-34.7492l-72.0166 33.2055c-35.5536,16.3571 -51.0579,58.493 -34.6831,94.0418l26.1319 56.8241c-34.3843,27.8681 -64.0323,60.1004 -88.3879,95.7107l-58.7918 -21.7701c-17.7768,-6.52087 -37.0311,-5.78032 -54.241,2.1378 -17.165,7.93465 -30.2634,22.0925 -36.7796,39.8055l-27.4925 74.4721c-13.5413,36.5929 5.29252,77.4969 41.9433,91.0383z"/>
  </g>
  <g id="_340356616">
   <path id="_340356808" class="fil3" d="M1470.86 863.143l0.0885827 0c15.176,0.0106299 30.4465,-1.35945 45.6804,-4.15748l14.5323 31.487c9.03898,19.7221 32.4473,28.35 52.1351,19.2756l39.9839 -18.3851c19.6843,-9.0756 28.3158,-32.4815 19.2756,-52.1693l-14.5701 -31.5189c19.0772,-15.4606 35.5134,-33.3662 49.0607,-53.1579l32.5866 12.0803c19.6843,7.30276 43.2237,-3.54567 50.5252,-23.2335l15.2138 -41.3185c3.65197,-9.85985 3.24095,-20.5335 -1.16102,-30.0555 -4.40197,-9.55394 -12.2799,-16.8201 -22.0701,-20.4l-32.6469 -12.0791c2.58425,-23.7827 1.7374,-48.1075 -2.77087,-72.2304l31.5567 -14.4992c19.6866,-9.0756 28.3252,-32.4744 19.2484,-52.1244l-18.3921 -40.0181c-9.07324,-19.6536 -32.4827,-28.3252 -52.167,-19.2496l-31.5213 14.5323c-15.4512,-19.0996 -33.3638,-35.5122 -53.1213,-49.0241l12.0449 -32.6114c3.64961,-9.86103 3.23859,-20.5441 -1.16339,-30.091 -4.36418,-9.51851 -12.2421,-16.7858 -22.0689,-20.4378l-41.2866 -15.248c-9.86103,-3.61654 -20.5335,-3.21378 -30.0532,1.15394 -9.55631,4.40197 -16.8225,12.2528 -20.4378,22.1138l-12.0791 32.6481c-8.563,-0.934253 -17.1933,-1.42087 -25.8614,-1.45276l-0.561024 -0.00236221 0 94.5946 0.472441 0.00472441c60.3107,0.217323 115.481,35.641 140.725,90.4347 35.8512,77.8631 1.70079,170.382 -76.1528,206.244 -20.5417,9.47245 -42.3827,14.276 -64.8662,14.2878l-0.0874016 0 -0.090945 0 0 94.6076z"/>
   <path id="_340356592" class="fil4" d="M1189.58 574.556l32.6492 12.0343c-2.59488,23.8181 -1.73858,48.0733 2.73307,72.2316l-31.5296 14.498c-19.6878,9.03898 -28.3146,32.4792 -19.2414,52.2024l18.3851 39.9485c9.08387,19.6866 32.4473,28.35 52.1351,19.2768l31.5532 -14.5677c15.4618,19.1008 33.3733,35.5122 53.0965,49.0571l-12.0449 32.6233c-7.47756,20.3315 2.93386,42.9792 23.2666,50.491l41.276 15.2835c19.6878,7.2319 43.2355,-3.61536 50.5016,-23.2677l12.0343 -32.6551c8.77087,0.94252 17.5996,1.42205 26.4626,1.4315l0 -94.6076c-60.4926,-0.034252 -115.926,-35.5028 -141.227,-90.4052 -35.8264,-77.9233 -1.67599,-170.418 76.1516,-206.304 20.6386,-9.45001 42.4748,-14.263 64.9902,-14.263l0.0850394 0.0011811 0 -94.5946c-15.2126,-0.0212599 -30.5351,1.35827 -45.7985,4.17874l-14.498 -31.5201c-9.08387,-19.6866 -32.4815,-28.3524 -52.1693,-19.2756l-39.9485 18.4193c-19.7232,9.07442 -28.3229,32.4473 -19.2402,52.167l14.4957 31.5225c-19.0736,15.4583 -35.5193,33.339 -49.03,53.0918l-32.6126 -12.0756c-9.86221,-3.61772 -20.5429,-3.2067 -30.0898,1.18583 -9.52087,4.40079 -16.787,12.2551 -20.4024,22.0807l-15.2504 41.3114c-7.51182,20.2984 2.93622,42.9886 23.2666,50.5004z"/>
  </g>
  <g id="_340356304">
   <path id="_340356472" class="fil5" d="M893.803 632.732l0.0602363 0c10.4291,0.00708662 20.9232,-0.934253 31.3914,-2.85709l9.98741 21.6378c6.21142,13.5532 22.298,19.4823 35.8276,13.2473l27.4772 -12.6343c13.5272,-6.23741 19.4587,-22.3217 13.2461,-35.8512l-10.0122 -21.6603c13.1091,-10.6252 24.404,-22.9299 33.7146,-36.5303l22.3925 8.30079c13.5284,5.01969 29.7047,-2.43543 34.7221,-15.965l10.4551 -28.3949c2.50866,-6.77599 2.22638,-14.1106 -0.798426,-20.654 -3.02481,-6.56575 -8.43898,-11.5595 -15.1665,-14.0197l-22.4351 -8.30079c1.77638,-16.3429 1.1941,-33.0591 -1.90394,-49.637l21.6862 -9.96379c13.5284,-6.23623 19.4646,-22.3158 13.2272,-35.8205l-12.639 -27.5008c-6.23504,-13.5059 -22.3217,-19.4658 -35.85,-13.2284l-21.6614 9.98741c-10.6181,-13.1256 -22.9276,-24.404 -36.5044,-33.6898l8.27717 -22.4114c2.50748,-6.77599 2.2252,-14.1177 -0.799607,-20.6776 -3,-6.54213 -8.413,-11.5358 -15.1665,-14.0457l-28.3713 -10.4787c-6.77717,-2.48504 -14.1118,-2.20748 -20.6528,0.793701 -6.56812,3.02481 -11.5618,8.42009 -14.0457,15.1961l-8.30079 22.4362c-5.88426,-0.64252 -11.8158,-0.976772 -17.7721,-0.999213l-0.38504 0 0 65.0056 0.323622 0.00236221c41.4461,0.15 79.3595,24.4925 96.7076,62.1473 24.6378,53.5075 1.16811,117.087 -52.3323,141.732 -14.1165,6.50906 -29.126,9.81024 -44.5772,9.81851l-0.0602363 0 -0.0614174 0 0 65.015z"/>
   <path id="_340356376" class="fil6" d="M700.508 434.415l22.4362 8.27009c-1.78228,16.3665 -1.1941,33.0343 1.87914,49.637l-21.6673 9.96379c-13.5295,6.21142 -19.4587,22.3193 -13.2236,35.8725l12.6354 27.4536c6.24213,13.5295 22.2969,19.4823 35.8264,13.2461l21.6839 -10.0099c10.6252,13.1256 22.9347,24.404 36.4878,33.7122l-8.27717 22.4185c-5.1378,13.9713 2.01614,29.5358 15.9898,34.6985l28.3642 10.5024c13.5295,4.9689 29.7118,-2.48504 34.7055,-15.9898l8.27009 -22.441c6.02717,0.648426 12.0945,0.977954 18.1854,0.983859l0 -65.015c-41.5713,-0.0236221 -79.6666,-24.3981 -97.0524,-62.1272 -24.6201,-53.5489 -1.15158,-117.111 52.3323,-141.773 14.1827,-6.49371 29.1886,-9.80198 44.6611,-9.80198l0.0590552 0.0011811 0 -65.0056c-10.4539,-0.0153543 -20.9847,0.933072 -31.4729,2.87126l-9.96379 -21.6614c-6.24213,-13.5284 -22.3217,-19.4835 -35.8512,-13.2461l-27.4524 12.6579c-13.5543,6.23504 -19.4646,22.298 -13.2225,35.85l9.96261 21.6614c-13.1079,10.624 -24.4099,22.911 -33.6945,36.4855l-22.4114 -8.29843c-6.77717,-2.48622 -14.1165,-2.20394 -20.6776,0.814961 -6.54331,3.02481 -11.537,8.42127 -14.0209,15.1736l-10.4799 28.389c-5.1626,13.95 2.01732,29.5429 15.9886,34.7055z"/>
  </g>
 </g>
</svg>
