<?xml version="1.0" encoding="UTF-8"?>
<!DOCTYPE svg PUBLIC "-//W3C//DTD SVG 1.1//EN" "http://www.w3.org/Graphics/SVG/1.1/DTD/svg11.dtd">
<!-- Creator: CorelDRAW -->
<svg xmlns="http://www.w3.org/2000/svg" xml:space="preserve" width="2048px" height="2048px" style="shape-rendering:geometricPrecision; text-rendering:geometricPrecision; image-rendering:optimizeQuality; fill-rule:evenodd; clip-rule:evenodd"
viewBox="0 0 2048 2048"
 xmlns:xlink="http://www.w3.org/1999/xlink">
 <defs>
  <style type="text/css">
   <![CDATA[
    .fil0 {fill:none}
    .fil4 {fill:#212121}
    .fil2 {fill:#424242;fill-rule:nonzero}
    .fil3 {fill:#6E6E6E;fill-rule:nonzero}
    .fil1 {fill:#E34544;fill-rule:nonzero}
   ]]>
  </style>
 </defs>
 <g id="Layer_x0020_1">
  <metadata id="CorelCorpID_0Corel-Layer"/>
  <rect class="fil0" width="2048" height="2048"/>
  <rect class="fil0" x="255.999" y="255.999" width="1536" height="1536"/>
  <rect class="fil0" x="255.999" y="255.999" width="1536" height="1536"/>
  <rect class="fil0" x="255.999" y="255.999" width="1536" height="1536"/>
  <g id="_348089224">
   <path id="_348089848" class="fil1" d="M435 1457.08c-51.8941,-5.60079 -97.7316,-39.13 -130.975,-90.5079 -33.9957,-52.5414 -55.0252,-124.413 -55.0252,-203.157 0,-78.743 21.0295,-150.614 55.0252,-203.154 33.2433,-51.378 79.0808,-84.9072 130.975,-90.5079l0 587.327z"/>
   <path id="_348089728" class="fil2" d="M435 869.75l0 -31.8378c0,-136.43 55.7918,-260.439 145.675,-350.323 89.8843,-89.8831 213.893,-145.675 350.323,-145.675l186.003 0c136.43,0 260.439,55.7918 350.322,145.676 89.8843,89.8843 145.676,213.892 145.676,350.322l0 31.8378 0 587.327c-5.11063,0.551575 -10.2791,0.837402 -15.5008,0.837402 -2.93977,0 -6.27402,-0.135827 -9.97442,-0.401575 -3.02835,-0.214961 -6.29056,-0.571654 -9.763,-1.05709l-26.7626 -3.7441 0 -26.8925 0 -92.615 0 -459.089 0 -36.2032c0,-119.317 -48.8351,-227.81 -127.511,-306.486 -78.6757,-78.6757 -187.169,-127.511 -306.487,-127.511l-186.003 0c-119.317,0 -227.811,48.8351 -306.488,127.51 -78.6745,78.6757 -127.51,187.169 -127.51,306.487l0 36.2032 0 26.8925 0 429.103 0 95.7083 0 26.8925 -26.7626 3.7441c-3.47244,0.485433 -6.73465,0.842127 -9.763,1.05709 -3.7004,0.265748 -7.03465,0.401575 -9.97442,0.401575 -5.20276,0 -10.35,-0.283465 -15.4429,-0.830316l-0.0578741 -0.00708662 0 -587.327z"/>
   <path id="_348089656" class="fil3" d="M557.313 961.915c0,-17.1213 -13.8803,-31.0016 -31.0004,-31.0016 -17.1213,0 -31.0016,13.8803 -31.0016,31.0016l0 464.999c0,17.1201 13.8803,31.0004 31.0016,31.0004 17.1201,0 31.0004,-13.8803 31.0004,-31.0004l0 -464.999z"/>
   <path id="_348089560" class="fil3" d="M1551 956.904c0,-17.1201 -13.8803,-31.0004 -31.0016,-31.0004 -17.1201,0 -31.0004,13.8803 -31.0004,31.0004l0 465c0,17.1201 13.8803,31.0004 31.0004,31.0004 17.1213,0 31.0016,-13.8803 31.0016,-31.0004l0 -465z"/>
   <path id="_348089440" class="fil1" d="M1613 1457.08c51.8941,-5.60079 97.7316,-39.13 130.975,-90.5079 33.9957,-52.5414 55.0252,-124.413 55.0252,-203.157 0,-78.743 -21.0295,-150.614 -55.0252,-203.154 -33.2433,-51.378 -79.0808,-84.9072 -130.975,-90.5079l0 587.327z"/>
   <path id="_348089368" class="fil2" d="M496.954 1448.77c-0.649607,79.5863 9.29764,128.303 65.3245,153.417 64.5095,28.9158 185.352,35.2937 400.719,28.9524l1.87559 52.5874c-226.029,6.6567 -355.101,-1.04528 -429.781,-34.5201 -83.165,-37.278 -100.208,-99.6213 -99.3863,-200.294l61.2485 -0.142913z"/>
   <ellipse id="_348089296" class="fil4" cx="994.601" cy="1653.92" rx="67.265" ry="52.1717"/>
  </g>
 </g>
</svg>
