<?xml version="1.0" encoding="UTF-8"?>
<!DOCTYPE svg PUBLIC "-//W3C//DTD SVG 1.1//EN" "http://www.w3.org/Graphics/SVG/1.1/DTD/svg11.dtd">
<!-- Creator: CorelDRAW -->
<svg xmlns="http://www.w3.org/2000/svg" xml:space="preserve" width="2048px" height="2048px" style="shape-rendering:geometricPrecision; text-rendering:geometricPrecision; image-rendering:optimizeQuality; fill-rule:evenodd; clip-rule:evenodd"
viewBox="0 0 2048 2048"
 xmlns:xlink="http://www.w3.org/1999/xlink">
 <defs>
  <style type="text/css">
   <![CDATA[
    .fil2 {fill:none}
    .fil4 {fill:#424242}
    .fil1 {fill:#616161}
    .fil0 {fill:#757575}
    .fil3 {fill:#EEEEEE}
   ]]>
  </style>
 </defs>
 <g id="Layer_x0020_1">
  <metadata id="CorelCorpID_0Corel-Layer"/>
  <path class="fil0" d="M1024 255.999l-479.99 0c-53.0729,0 -96.0072,42.978 -96.0072,96.006l0 1343.99c0,53.0705 42.9343,96.0072 96.0072,96.0072l479.99 0 0 -1536z"/>
  <path class="fil1" d="M1504.01 255.999l-478.891 0 -1.11614 0 0 1536 0.0862205 0 479.921 0c53.0552,0 95.9883,-42.952 95.9883,-96.0072l0.0011811 -1343.99c0,-53.0292 -42.9355,-96.006 -95.9894,-96.006z"/>
  <rect class="fil2" width="2048" height="2048"/>
  <rect class="fil2" x="255.999" y="255.999" width="1536" height="1536"/>
  <rect class="fil2" x="255.999" y="255.999" width="1536" height="1536"/>
  <rect class="fil2" x="255.999" y="255.999" width="1536" height="1536"/>
  <polygon class="fil3" points="1504,1599.99 543.997,1599.99 543.997,351.998 1504,351.998 "/>
  <path class="fil4" d="M1024.01 1751.33c-26.478,0 -47.9611,-21.4831 -47.9611,-47.9481 0,-26.4768 21.4831,-47.9599 47.9611,-47.9599 26.4638,0 47.9469,21.4831 47.9469,47.9599 0,26.465 -21.4831,47.9481 -47.9469,47.9481z"/>
 </g>
</svg>
