<?xml version="1.0" encoding="UTF-8"?>
<!DOCTYPE svg PUBLIC "-//W3C//DTD SVG 1.1//EN" "http://www.w3.org/Graphics/SVG/1.1/DTD/svg11.dtd">
<!-- Creator: CorelDRAW -->
<svg xmlns="http://www.w3.org/2000/svg" xml:space="preserve" width="2048px" height="2048px" style="shape-rendering:geometricPrecision; text-rendering:geometricPrecision; image-rendering:optimizeQuality; fill-rule:evenodd; clip-rule:evenodd"
viewBox="0 0 2048 2048"
 xmlns:xlink="http://www.w3.org/1999/xlink">
 <defs>
  <style type="text/css">
   <![CDATA[
    .fil0 {fill:none}
    .fil1 {fill:#00897B;fill-rule:nonzero}
    .fil2 {fill:#E0F2F1;fill-rule:nonzero}
    .fil3 {fill:#EF5350;fill-rule:nonzero}
    .fil4 {fill:#F9A825;fill-rule:nonzero}
   ]]>
  </style>
 </defs>
 <g id="Layer_x0020_1">
  <metadata id="CorelCorpID_0Corel-Layer"/>
  <rect class="fil0" width="2048" height="2048"/>
  <rect class="fil0" x="255.999" y="255.999" width="1536" height="1536"/>
  <rect class="fil0" x="255.999" y="255.999" width="1536" height="1536"/>
  <rect class="fil0" x="255.999" y="255.999" width="1536" height="1536"/>
  <g id="_347537984">
   <path id="_347539640" class="fil1" d="M1544.18 503.817c-133.113,-133.113 -317.034,-215.451 -520.183,-215.451 -203.149,0 -387.061,82.3383 -520.173,215.451 -133.113,133.113 -215.46,317.034 -215.46,520.183 0,203.14 82.3477,387.061 215.46,520.173 133.113,133.113 317.033,215.46 520.173,215.46 203.149,0 387.07,-82.3477 520.183,-215.46 133.113,-133.113 215.451,-317.025 215.451,-520.173 0,-203.149 -82.3383,-387.07 -215.451,-520.183z"/>
   <path id="_347539496" class="fil2" d="M1519.41 528.589c-126.774,-126.774 -301.937,-205.192 -495.411,-205.192 -193.474,0 -368.628,78.4182 -495.403,205.192 -126.774,126.774 -205.2,301.937 -205.2,495.411 0,193.466 78.4264,368.628 205.2,495.403 126.775,126.774 301.937,205.2 495.403,205.2 193.474,0 368.638,-78.4264 495.411,-205.2 126.774,-126.775 205.192,-301.929 205.192,-495.403 0,-193.474 -78.4182,-368.638 -205.192,-495.411z"/>
   <g>
    <path id="_347539352" class="fil1" d="M645.871 1295.57c-33.5953,-32.1673 -54.7619,-76.9595 -56.1083,-126.726l-124.295 0c-45.9615,0 -88.1186,16.4835 -120.885,43.8426 26.7957,102.245 76.076,195.403 142.217,273.855 9.66733,-90.8635 73.8367,-165.658 159.071,-190.971z"/>
    <path id="_347539208" class="fil1" d="M528.072 1158.84c22.3453,0 43.4374,-5.14134 62.3634,-13.9961 5.97166,-57.3048 38.5914,-106.714 85.0973,-135.842 -1.20827,-80.4686 -66.6945,-145.376 -147.461,-145.376 -81.5209,0 -147.534,66.0945 -147.534,147.607 0,81.5127 66.013,147.607 147.534,147.607z"/>
    <path id="_347539064" class="fil3" d="M1095.11 1465.03l-125.244 0c-104.171,0 -188.981,84.7926 -188.981,188.954l0 39.2256c75.7619,27.9662 157.67,43.2437 243.144,43.2437 91.8414,0 179.555,-17.6374 259.961,-49.6855l0 -32.7839c0.0826772,-104.226 -84.7099,-188.954 -188.88,-188.954z"/>
    <path id="_347538920" class="fil4" d="M906.072 1439.31c-33.3839,-32.0292 -54.5315,-76.5178 -56.1083,-125.916 -4.55079,-0.377953 -9.16772,-0.746457 -13.8579,-0.746457l-125.189 0c-104.171,0 -188.954,84.7926 -188.954,188.964l0 23.6351 5.40945 5.49095c62.3079,62.3008 136.283,112.952 218.356,148.409l0 -24.9331c0,-101.398 67.7186,-187.324 160.343,-214.903z"/>
    <path id="_347538776" class="fil1" d="M1582.58 1164.15l-124.295 0c-1.32756,49.7575 -22.5673,94.5591 -56.0989,126.653 86.5607,25.7823 151.395,102.54 159.486,195.255 66.7583,-79.3276 116.288,-173.647 142.806,-277.2 -32.9327,-27.874 -75.4938,-44.7083 -121.898,-44.7083z"/>
    <path id="_347538632" class="fil4" d="M1339.29 1312.65l-124.295 0c-1.33583,49.6843 -22.5756,94.4859 -56.1083,126.663 92.543,27.5788 160.352,113.413 160.352,214.903l0 17.3776c75.3485,-34.95 143.453,-82.8568 201.449,-140.854 2.51457,-2.51457 5.0126,-5.05748 7.48229,-7.61103l0 -21.515c0,-104.171 -84.7194,-188.964 -188.881,-188.964z"/>
    <path id="_347538488" class="fil3" d="M1180.13 1307.34c0,81.5304 -66.0957,147.626 -147.618,147.626 -81.5209,0 -147.598,-66.0957 -147.598,-147.626 0,-81.4938 66.0768,-147.525 147.598,-147.525 81.5221,0 147.618,66.0308 147.618,147.525z"/>
    <path id="_347538344" class="fil1" d="M1372.52 1004.32c46.5059,29.1272 79.1257,78.5351 85.0973,135.832 18.9165,8.86536 40.0181,13.9228 62.3729,13.9228 81.5115,0 147.534,-66.0119 147.534,-147.525 0,-81.5127 -66.0225,-147.525 -147.534,-147.525 -80.7851,-0.0838583 -146.271,64.806 -147.47,145.295z"/>
    <path id="_347538200" class="fil4" d="M773.593 1007.44c-81.5942,0 -147.617,66.0945 -147.617,147.607 0,81.4571 66.0225,147.525 147.617,147.525 28.8236,0 55.6666,-8.413 78.4536,-22.7953 7.22363,-47.1508 32.491,-88.3772 68.6398,-116.445 0.138189,-2.76378 0.433465,-5.51103 0.433465,-8.28426 0,-81.5127 -66.0969,-147.607 -147.527,-147.607z"/>
    <path id="_347538080" class="fil4" d="M1276.63 1302.57c81.5032,0 147.599,-65.993 147.599,-147.525 0,-81.5127 -66.0957,-147.607 -147.599,-147.607 -80.719,0 -146.208,64.8981 -147.478,145.378 46.5886,29.126 79.2272,78.5351 85.18,135.832 18.9165,8.87245 40.0099,13.9217 62.2985,13.9217z"/>
   </g>
  </g>
 </g>
</svg>
