<?xml version="1.0" encoding="UTF-8"?>
<!DOCTYPE svg PUBLIC "-//W3C//DTD SVG 1.1//EN" "http://www.w3.org/Graphics/SVG/1.1/DTD/svg11.dtd">
<!-- Creator: CorelDRAW -->
<svg xmlns="http://www.w3.org/2000/svg" xml:space="preserve" width="2048px" height="2048px" style="shape-rendering:geometricPrecision; text-rendering:geometricPrecision; image-rendering:optimizeQuality; fill-rule:evenodd; clip-rule:evenodd"
viewBox="0 0 2048 2048"
 xmlns:xlink="http://www.w3.org/1999/xlink">
 <defs>
  <style type="text/css">
   <![CDATA[
    .fil2 {fill:none}
    .fil3 {fill:#43A047}
    .fil4 {fill:#F4511E}
    .fil1 {fill:#FBE9E7}
    .fil0 {fill:#FF8A65}
   ]]>
  </style>
 </defs>
 <g id="Layer_x0020_1">
  <metadata id="CorelCorpID_0Corel-Layer"/>
  <path class="fil0" d="M1384.17 363.587c-282.32,0 -437.928,0 -720.201,0 -92.6717,0 -168.114,75.3012 -168.114,167.974l0 1092.46c0,92.5394 75.4418,167.973 168.114,167.973l720.201 0c92.6375,0 167.974,-75.4335 167.974,-167.973l0 -1092.46c0.13937,-92.6729 -75.3367,-167.974 -167.974,-167.974z"/>
  <path class="fil1" d="M1384.17 403.587c-240.068,0 -480.134,0 -720.201,0 -70.5756,0 -128.114,57.3638 -128.114,127.975l0 1092.46c0,70.5414 57.6012,127.974 128.114,127.974l720.201 0c70.5119,0 127.975,-57.4666 127.975,-127.974l0 -1092.46c0,-70.578 -57.3993,-127.975 -127.975,-127.975z"/>
  <path class="fil0" d="M1179.87 363.587l0 -34.8024c0,-40.1481 -32.6374,-72.7855 -72.9178,-72.7855l-165.931 0c-40.2449,0 -72.7772,32.6374 -72.7772,72.7855l0 34.8024 311.626 0z"/>
  <rect class="fil2" width="2048" height="2048"/>
  <rect class="fil2" x="255.999" y="255.999" width="1536" height="1536"/>
  <rect class="fil2" x="255.999" y="255.999" width="1536" height="1536"/>
  <g id="_346495552">
   <path id="_346501888" class="fil3" d="M812.873 714.61l-14.9351 17.7307c-4.93701,-12.7878 -17.3788,-21.8599 -31.9689,-21.8599l-99.0615 0c-19.0713,0 -34.4681,15.3555 -34.4681,34.4268l0 109.184c0,18.9532 15.3969,34.4339 34.4681,34.4339l99.0615 0c18.9532,0 34.441,-15.4807 34.441,-34.4339l0 -58.4835 45.0874 -53.7449c7.5189,-8.96339 6.40749,-22.4197 -2.57599,-29.9528 -9.07205,-7.49174 -22.4398,-6.26339 -30.0484,2.7zm-35.3599 139.481l0 0c-0.116929,6.25512 -5.25355,11.4343 -11.5441,11.4343l-99.0615 0c-6.40749,0 -11.5724,-5.17914 -11.5724,-11.4343l0 -109.184c0,-6.29056 5.16496,-11.4555 11.5724,-11.4555l99.0615 0c6.29056,0 11.4272,5.16496 11.4272,11.4555l0 12.013 -28.5992 34.213c-7.61575,8.97638 -20.6528,9.763 -29.276,1.80236l-17.752 -16.3914c-8.49213,-8.07875 -22.0807,-7.50591 -30.0355,1.1185 -7.98898,8.52048 -7.41615,21.998 1.1185,30.0626l49.6867 46.1374c3.92835,3.70748 9.07914,5.59961 14.478,5.59961 0.45,0 0.780709,0 1.35473,0 5.82638,-0.351969 11.1921,-3.13465 14.9067,-7.53308l24.2351 -28.8402 0 31.0016z"/>
   <path id="_346495336" class="fil4" d="M1388.51 770.769l-436.647 0c-14.9421,0 -27.0626,12.1122 -27.0626,27.0898 0,14.9516 12.1205,26.8973 27.0626,26.8973l436.647 0c14.9516,0 27.0555,-11.9457 27.0555,-26.8973 0,-14.9776 -12.1039,-27.0898 -27.0555,-27.0898z"/>
  </g>
  <g id="_344172008">
   <path id="_346497616" class="fil3" d="M812.873 1042.08l-14.9351 17.7307c-4.93701,-12.7878 -17.3788,-21.8599 -31.9689,-21.8599l-99.0615 0c-19.0713,0 -34.4681,15.3555 -34.4681,34.4268l0 109.184c0,18.9532 15.3969,34.4339 34.4681,34.4339l99.0615 0c18.9532,0 34.441,-15.4807 34.441,-34.4339l0 -58.4835 45.0874 -53.7449c7.5189,-8.96339 6.40749,-22.4197 -2.57599,-29.9528 -9.07205,-7.49174 -22.4398,-6.26339 -30.0484,2.7zm-35.3599 139.481l0 0c-0.116929,6.25512 -5.25355,11.4343 -11.5441,11.4343l-99.0615 0c-6.40749,0 -11.5724,-5.17914 -11.5724,-11.4343l0 -109.184c0,-6.29056 5.16496,-11.4555 11.5724,-11.4555l99.0615 0c6.29056,0 11.4272,5.16496 11.4272,11.4555l0 12.013 -28.5992 34.213c-7.61575,8.97638 -20.6528,9.763 -29.276,1.80236l-17.752 -16.3914c-8.49213,-8.07875 -22.0807,-7.50591 -30.0355,1.1185 -7.98898,8.52048 -7.41615,21.998 1.1185,30.0626l49.6867 46.1374c3.92835,3.70748 9.07914,5.59961 14.478,5.59961 0.45,0 0.780709,0 1.35473,0 5.82638,-0.351969 11.1921,-3.13465 14.9067,-7.53308l24.2351 -28.8402 0 31.0016z"/>
   <path id="_346498864" class="fil4" d="M1388.51 1098.24l-436.647 0c-14.9421,0 -27.0626,12.1122 -27.0626,27.0898 0,14.9516 12.1205,26.8973 27.0626,26.8973l436.647 0c14.9516,0 27.0555,-11.9457 27.0555,-26.8973 0,-14.9776 -12.1039,-27.0898 -27.0555,-27.0898z"/>
  </g>
  <g id="_344170328">
   <path id="_344169440" class="fil3" d="M812.873 1369.56l-14.9351 17.7307c-4.93701,-12.7878 -17.3788,-21.8599 -31.9689,-21.8599l-99.0615 0c-19.0713,0 -34.4681,15.3555 -34.4681,34.4268l0 109.184c0,18.9532 15.3969,34.4339 34.4681,34.4339l99.0615 0c18.9532,0 34.441,-15.4807 34.441,-34.4339l0 -58.4835 45.0874 -53.7449c7.5189,-8.96339 6.40749,-22.4197 -2.57599,-29.9528 -9.07205,-7.49174 -22.4398,-6.26339 -30.0484,2.7zm-35.3599 139.481l0 0c-0.116929,6.25512 -5.25355,11.4343 -11.5441,11.4343l-99.0615 0c-6.40749,0 -11.5724,-5.17914 -11.5724,-11.4343l0 -109.184c0,-6.29056 5.16496,-11.4555 11.5724,-11.4555l99.0615 0c6.29056,0 11.4272,5.16496 11.4272,11.4555l0 12.013 -28.5992 34.213c-7.61575,8.97638 -20.6528,9.763 -29.276,1.80236l-17.752 -16.3914c-8.49213,-8.07875 -22.0807,-7.50591 -30.0355,1.1185 -7.98898,8.52048 -7.41615,21.998 1.1185,30.0626l49.6867 46.1374c3.92835,3.70748 9.07914,5.59961 14.478,5.59961 0.45,0 0.780709,0 1.35473,0 5.82638,-0.351969 11.1921,-3.13465 14.9067,-7.53308l24.2351 -28.8402 0 31.0016z"/>
   <path id="_344170976" class="fil4" d="M1388.51 1425.72l-436.647 0c-14.9421,0 -27.0626,12.1122 -27.0626,27.0898 0,14.9516 12.1205,26.8973 27.0626,26.8973l436.647 0c14.9516,0 27.0555,-11.9457 27.0555,-26.8973 0,-14.9776 -12.1039,-27.0898 -27.0555,-27.0898z"/>
  </g>
 </g>
</svg>
