<?xml version="1.0" encoding="UTF-8"?>
<!DOCTYPE svg PUBLIC "-//W3C//DTD SVG 1.1//EN" "http://www.w3.org/Graphics/SVG/1.1/DTD/svg11.dtd">
<!-- Creator: CorelDRAW -->
<svg xmlns="http://www.w3.org/2000/svg" xml:space="preserve" width="2048px" height="2048px" style="shape-rendering:geometricPrecision; text-rendering:geometricPrecision; image-rendering:optimizeQuality; fill-rule:evenodd; clip-rule:evenodd"
viewBox="0 0 2048 2048"
 xmlns:xlink="http://www.w3.org/1999/xlink">
 <defs>
  <style type="text/css">
   <![CDATA[
    .fil1 {fill:none}
    .fil0 {fill:#01579B}
    .fil2 {fill:#0277BD}
    .fil3 {fill:#0288D1}
    .fil4 {fill:#4FC3F7}
   ]]>
  </style>
 </defs>
 <g id="Layer_x0020_1">
  <metadata id="CorelCorpID_0Corel-Layer"/>
  <path class="fil0" d="M255.999 1253.85c49.2839,66.776 106.132,127.616 169.269,181.277l0 -178.076c0,-53.7024 22.154,-100.061 47.6433,-143.261 -14.8784,-4.21181 -36.9083,-10.9937 -52.9902,-10.9937 -85.9335,0 -157.03,66.7749 -163.922,151.054z"/>
  <rect class="fil1" width="2048" height="2048"/>
  <rect class="fil1" x="255.999" y="255.999" width="1536" height="1536"/>
  <rect class="fil1" x="255.999" y="255.999" width="1536" height="1536"/>
  <rect class="fil1" x="255.999" y="255.999" width="1536" height="1536"/>
  <path class="fil2" d="M640.92 700.636c82.4327,0 149.071,67.0489 149.071,149.086 0,81.9001 -66.6378,148.989 -149.071,148.989 -82.0642,0 -149.139,-67.089 -149.139,-148.989 0,-82.0371 67.0749,-149.086 149.139,-149.086z"/>
  <path class="fil3" d="M414.926 1428.88c78.932,58.7339 166.26,106.802 259.797,142.207 0,-136.108 4.41733,-415.434 62.4957,-529.581 -21.2516,-6.29056 -60.854,-17.1886 -84.28,-17.1886 -130.978,0 -238.012,106.556 -238.012,237.945l0 166.617z"/>
  <path class="fil2" d="M397.485 880.924c54.8918,0 99.0993,44.2217 99.0993,98.9375 0,54.8504 -44.2075,99.045 -99.0993,99.045 -54.6886,0 -98.8831,-44.1945 -98.8831,-99.045 0,-54.7158 44.1945,-98.9375 98.8831,-98.9375z"/>
  <path class="fil4" d="M1031.16 411.857c-121.325,0 -219.853,99.0898 -219.853,220.524 0,121.325 98.5276,220.374 219.853,220.374 121.42,0 220.495,-99.0485 220.495,-220.374 0,-121.434 -99.0757,-220.524 -220.495,-220.524z"/>
  <path class="fil4" d="M1376.79 1584.9c-104.525,33.2729 -215.831,51.2481 -331.33,51.2481 -131.604,0 -257.798,-23.3032 -374.681,-66.0119l0 -338.707c0,-194.936 157.844,-353.809 352.663,-353.809 194.903,0 353.348,158.873 353.348,353.809l0 353.471z"/>
  <path class="fil2" d="M1407.08 716.54c-82.4327,0 -149.071,67.0489 -149.071,149.085 0,81.9001 66.6378,148.99 149.071,148.99 82.0642,0 149.14,-67.0902 149.14,-148.99 0,-82.0359 -67.076,-149.085 -149.14,-149.085z"/>
  <path class="fil3" d="M1633.07 1444.78c-78.932,58.7351 -166.26,106.802 -259.797,142.207l0 -270.944c0,-65.0115 -17.5725,-210.842 -45.2374,-265.213 21.2516,-6.29056 43.5957,-10.6122 67.0217,-10.6122 130.978,0 238.012,106.556 238.012,237.946l0 166.616z"/>
  <path class="fil0" d="M1792 1269.75c-49.2839,66.7749 -106.132,127.615 -169.269,181.276l0 -178.076c0,-53.7024 -22.1528,-100.061 -47.6433,-143.26 14.8784,-4.21181 36.9083,-10.9949 52.9902,-10.9949 85.9335,0 157.03,66.7749 163.922,151.055z"/>
  <path class="fil2" d="M1650.52 896.826c-54.8906,0 -99.0993,44.2217 -99.0993,98.9375 0,54.8504 44.2087,99.045 99.0993,99.045 54.6886,0 98.8831,-44.1945 98.8831,-99.045 0,-54.7158 -44.1945,-98.9375 -98.8831,-98.9375z"/>
 </g>
</svg>
