<?xml version="1.0" encoding="UTF-8"?>
<!DOCTYPE svg PUBLIC "-//W3C//DTD SVG 1.1//EN" "http://www.w3.org/Graphics/SVG/1.1/DTD/svg11.dtd">
<!-- Creator: CorelDRAW -->
<svg xmlns="http://www.w3.org/2000/svg" xml:space="preserve" width="2048px" height="2048px" style="shape-rendering:geometricPrecision; text-rendering:geometricPrecision; image-rendering:optimizeQuality; fill-rule:evenodd; clip-rule:evenodd"
viewBox="0 0 2048 2048"
 xmlns:xlink="http://www.w3.org/1999/xlink">
 <defs>
  <style type="text/css">
   <![CDATA[
    .fil0 {fill:none}
    .fil1 {fill:#424242}
    .fil4 {fill:#757575}
    .fil3 {fill:#B71C1C}
    .fil5 {fill:#BDBDBD}
    .fil2 {fill:#D32F2F}
   ]]>
  </style>
 </defs>
 <g id="Layer_x0020_1">
  <metadata id="CorelCorpID_0Corel-Layer"/>
  <rect class="fil0" width="2048" height="2048"/>
  <rect class="fil0" x="255.999" y="255.999" width="1536" height="1536"/>
  <rect class="fil0" x="255.999" y="255.999" width="1536" height="1536"/>
  <path class="fil1" d="M963.481 1199.44l-481.825 477.141c-42.4548,41.8855 -95.0788,57.7477 -117.448,35.3799 -22.5331,-22.3689 -6.35197,-74.8512 35.8288,-116.999l478.03 -478.03c42.1796,-42.1914 95.7036,-57.9343 119.433,-34.9512 23.7177,22.9937 8.46851,75.5859 -34.0193,117.46z"/>
  <path class="fil1" d="M1788.38 386.274c-13.3913,-47.5477 -61.6607,-92.8418 -108.023,-100.874 -46.3618,-8.32323 -118.707,19.8933 -161.802,62.8371l-318.095 318.245c-43.0949,42.9437 -63.9036,91.8178 -46.6748,109.047 17.2406,17.2725 28.6795,32.7118 25.8662,34.9229 -1.62874,1.3689 -303.162,301.771 -304.65,303.409 -22.8898,22.5449 -22.5874,59.2678 0.722835,81.8552 23.3528,22.5992 60.313,22.7398 82.7599,0.302362 1.48819,-1.33701 302.569,-301.889 303.788,-303.528 2.04803,-2.5441 18.254,9.81142 36.3992,27.9142 18.1028,18.1453 67.591,-2.09173 110.686,-45.0248l325.243 -325.211c42.9331,-43.0937 66.9768,-116.508 53.7792,-163.893z"/>
  <path class="fil2" d="M1788.38 386.274c-13.3913,-47.5477 -61.6607,-92.8418 -108.023,-100.874 -46.3618,-8.32323 -118.707,19.8933 -161.802,62.8371l-318.095 318.245c-43.0949,42.9437 -63.9036,91.8178 -46.6748,109.047 17.2406,17.2725 28.6795,32.7118 25.8662,34.9229l82.6205 82.0383c2.04803,-2.5441 18.254,9.81142 36.3992,27.9142 18.1028,18.1453 67.591,-2.09173 110.686,-45.0248l325.243 -325.211c42.9331,-43.0937 66.9768,-116.508 53.7792,-163.893z"/>
  <path class="fil3" d="M1730.76 307.866c-9.24686,-6.66851 -19.0417,-12.2008 -29.0114,-16.2402l-520.359 520.357 22.6252 22.6252 526.745 -526.743z"/>
  <path class="fil4" d="M695.793 813.823l-32.9977 33.3177c-39.3744,39.978 -103.688,40.2803 -143.667,0.765355l-214.104 -211.743c-30.1784,-29.9516 -48.7229,-30.5339 -49.0241,-5.58426l0 1.30394c0.10748,7.80591 1.87559,17.9303 5.5193,30.2965l55.8284 189.307c15.7524,53.9304 71.7745,112.011 124.95,130.006l190.331 64.3123c53.2075,17.9953 128.518,64.6264 168.346,104.141l590.582 584.652c39.8174,39.515 104.173,39.2457 143.7,-0.571654l40.128 -40.6111 -151.356 -151.356c-15.8315,13.2461 -36.215,21.2162 -58.4563,21.2162 -50.5122,0 -91.3536,-40.8414 -91.3536,-91.3536 0,-22.2414 7.9689,-42.6248 21.2162,-58.4563l-599.643 -599.643z"/>
  <path class="fil5" d="M1632.85 1490.94l-590.431 -584.954c-39.8174,-39.3638 -87.9686,-114.103 -107.408,-166.707l-65.693 -177.825c-19.4717,-52.604 -78.5776,-109.078 -132.098,-126.006l-190.169 -60.0225c-53.4886,-16.9264 -64.4752,1.32638 -24.6473,40.852l214.256 211.895c39.8174,39.515 40.2378,103.688 0.722835,143.656l-41.1496 41.5489 -0.441733 0.444095 599.643 599.643 0.154725 -0.183071c16.748,-19.9122 41.8642,-32.5736 69.9827,-32.5736 50.3622,0 91.2142,40.852 91.2142,91.2131 0,28.1481 -12.6898,53.289 -32.6386,70.0371l-0.119291 0.100394 151.356 151.356 0.0401575 -0.0413386 58.193 -58.8957c39.365,-39.8162 39.0626,-104.173 -0.765355,-143.537z"/>
  <path class="fil3" d="M1787.43 383.129c-3.30591,-10.5142 -8.28426,-20.8784 -14.537,-30.7134l-525.403 525.401 14.7768 14.6728c0.946064,-1.1752 4.91339,0.829134 10.6937,5.10709l514.47 -514.467z"/>
 </g>
</svg>
