<?xml version="1.0" encoding="UTF-8"?>
<!DOCTYPE svg PUBLIC "-//W3C//DTD SVG 1.1//EN" "http://www.w3.org/Graphics/SVG/1.1/DTD/svg11.dtd">
<!-- Creator: CorelDRAW -->
<svg xmlns="http://www.w3.org/2000/svg" xml:space="preserve" width="2048px" height="2048px" style="shape-rendering:geometricPrecision; text-rendering:geometricPrecision; image-rendering:optimizeQuality; fill-rule:evenodd; clip-rule:evenodd"
viewBox="0 0 2048 2048"
 xmlns:xlink="http://www.w3.org/1999/xlink">
 <defs>
  <style type="text/css">
   <![CDATA[
    .fil0 {fill:none}
    .fil1 {fill:#0288D1}
    .fil2 {fill:#039BE5}
    .fil3 {fill:#29B6F6}
    .fil4 {fill:#81D4FA}
   ]]>
  </style>
 </defs>
 <g id="Layer_x0020_1">
  <metadata id="CorelCorpID_0Corel-Layer"/>
  <rect class="fil0" width="2048" height="2048"/>
  <rect class="fil0" x="255.999" y="255.999" width="1536" height="1536"/>
  <g id="_346499248">
   <path id="_346499320" class="fil1" d="M1321.56 474.643l11.1721 -74.9693c1.11024,-7.23898 -0.383859,-14.9492 -4.35355,-20.5087 -3.77599,-5.86536 -9.62481,-9.15237 -15.665,-9.15237l-620.168 0c-6.19016,0 -11.889,3.5315 -15.8587,9.15237 -3.77599,5.79567 -5.27126,13.5059 -4.16103,20.9799l11.8984 74.4981 637.136 0z"/>
   <path id="_346501912" class="fil2" d="M1397.02 544.08l13.8118 -74.9693c1.37244,-7.23898 -0.472441,-14.9492 -5.38465,-20.5087 -4.66772,-5.86536 -11.8973,-9.15237 -19.3725,-9.15237l-766.89 0c-7.65709,0 -14.7036,3.5315 -19.6158,9.15237 -4.6689,5.79567 -6.5126,13.5059 -5.14016,20.9799l14.7118 74.4981 787.88 0z"/>
   <path id="_346501048" class="fil3" d="M1493.94 630.608l17.0291 -73.7812c1.67008,-7.47402 0,-15.4205 -4.89567,-21.5221 -4.68544,-5.79567 -11.9067,-9.3189 -19.6169,-9.3189l-966.989 0c-7.88505,0 -15.1146,3.52323 -20.0894,9.80788 -4.89449,6.09331 -6.52087,14.2228 -4.65945,21.9331l17.9917 72.8812 981.23 0z"/>
   <path id="_346502992" class="fil4" d="M1021.79 630.039l-538.019 0c-110.234,0 -199.898,89.4284 -199.898,199.671l71.0091 472.826 666.908 -2.87008 0 -669.628z"/>
   <path id="_346496920" class="fil4" d="M1602.3 1297.17l94.3335 0 63.0721 -467.458c0,-110.243 -89.4898,-199.671 -199.908,-199.671l-536.925 0 -1.08307 0 0 669.628 0.448819 -0.00236221 580.061 -2.49567z"/>
   <path id="_346500400" class="fil1" d="M1332.88 1222.54c16.148,0 31.4103,-12.6744 34.0051,-28.5969l7.32402 -46.9536c2.59488,-16.7445 -9.04135,-30.5233 -26.0681,-30.5233l-319.809 0c-9.27402,32.5134 -30.587,65.8571 -59.4426,74.4461 -0.822048,1.54725 -1.93347,3.03071 -2.7626,4.513l0.216142 27.1146 366.537 0z"/>
   <path id="_346498792" class="fil1" d="M1398.95 988.359l8.59016 -54.867c3.02953,-19.7811 -9.4193,-35.9292 -27.704,-35.9292l-398.686 0c11.4177,27.5575 19.4032,60.7323 22.1587,100.498 8.20276,5.16496 14.2217,13.7788 19.1776,24.1335l339.213 0c17.6941,0 34.2213,-15.1016 37.2508,-33.8351z"/>
   <path id="_346497976" class="fil1" d="M655.947 1085.67c3.41575,29.25 30.5386,70.7965 49.265,70.7965 2.37756,0 4.52953,-0.604725 6.28583,-1.69134 13.7705,24.9626 30.7488,47.1048 49.7008,64.5674l141.625 0c17.2358,-17.6303 32.0622,-40.4989 42.6414,-65.8335 2.59606,1.70079 5.11772,2.95748 7.94528,2.95748 18.7347,0 41.0788,-41.5465 41.3055,-70.7965 0.217323,-29.7177 -2.37756,-54.4465 -22.1351,-54.4465 -2.15197,0 -4.73032,0.451181 -7.33229,1.03819 -1.71732,-86.0493 -24.078,-201.647 -156.049,-201.647 -122.891,0 -140.562,115.381 -132.367,201.278 -1.74921,-0.217323 -3.67441,-0.668504 -5.39056,-0.668504 -19.5721,0 -19.1776,24.7288 -15.4949,54.4465z"/>
   <path id="_346499632" class="fil1" d="M338.756 1293.99c-19.3725,0 -38.08,10.6099 -50.9386,28.617 -12.7984,18.0177 -18.4016,42.0201 -15.613,65.7426l6.19371 32.5418 0.209055 1.09961 1490.81 0 0.0153543 -0.0814961 6.36024 -33.5599c2.8063,-23.7225 -2.81457,-47.7248 -15.665,-65.7426 -12.789,-18.3071 -31.2614,-28.617 -50.8689,-28.617l-1370.5 0zm-60.1489 128.001l48.7229 256.001 1393.57 0 48.5138 -256.001 -1490.81 0z"/>
  </g>
 </g>
</svg>
