<?xml version="1.0" encoding="UTF-8"?>
<!DOCTYPE svg PUBLIC "-//W3C//DTD SVG 1.1//EN" "http://www.w3.org/Graphics/SVG/1.1/DTD/svg11.dtd">
<!-- Creator: CorelDRAW -->
<svg xmlns="http://www.w3.org/2000/svg" xml:space="preserve" width="2048px" height="2048px" style="shape-rendering:geometricPrecision; text-rendering:geometricPrecision; image-rendering:optimizeQuality; fill-rule:evenodd; clip-rule:evenodd"
viewBox="0 0 2048 2048"
 xmlns:xlink="http://www.w3.org/1999/xlink">
 <defs>
  <style type="text/css">
   <![CDATA[
    .fil2 {fill:none}
    .fil8 {fill:#FEFEFE}
    .fil0 {fill:#757575}
    .fil1 {fill:#E0E0E0}
    .fil7 {fill:#FFA000}
    .fil6 {fill:#FFB300}
    .fil4 {fill:#424242;fill-rule:nonzero}
    .fil3 {fill:#757575;fill-rule:nonzero}
    .fil5 {fill:white;fill-rule:nonzero}
   ]]>
  </style>
 </defs>
 <g id="Layer_x0020_1">
  <metadata id="CorelCorpID_0Corel-Layer"/>
  <rect class="fil0" x="479.999" y="255.999" width="1088" height="1536"/>
  <rect class="fil1" x="500" y="275.999" width="1048" height="1496"/>
  <rect class="fil2" width="2048" height="2048"/>
  <rect class="fil2" x="255.999" y="255.999" width="1536" height="1536"/>
  <rect class="fil2" x="256" y="255.999" width="1536" height="1536"/>
  <polygon class="fil3" points="656,459.998 1392,459.998 1392,500 656,500 "/>
  <polygon class="fil3" points="656,671.999 1392,671.999 1392,712.001 656,712.001 "/>
  <polygon class="fil3" points="656,884 1392,884 1392,924.002 656,924.002 "/>
  <polygon class="fil3" points="656,1096 1392,1096 1392,1136 656,1136 "/>
  <g id="_206723528">
   <path id="_206725496" class="fil4" d="M887.61 1582.47c11.3504,0 21.6307,4.60276 29.0681,12.0437 7.44095,7.43859 12.0437,17.7177 12.0437,29.0681 0,11.3528 -4.60276,21.6307 -12.0437,29.0705 -7.43741,7.43859 -17.7177,12.0413 -29.0681,12.0413 -11.3516,0 -21.6295,-4.60276 -29.0681,-12.0413 -7.43977,-7.43977 -12.0425,-17.7177 -12.0425,-29.0705 0,-11.3504 4.60276,-21.6295 12.0425,-29.0681 7.43859,-7.44095 17.7165,-12.0437 29.0681,-12.0437z"/>
   <path id="_206725352" class="fil5" d="M900.474 1610.72c-3.29055,-3.29055 -7.83898,-5.32796 -12.8646,-5.32796 -5.02441,0 -9.57284,2.0374 -12.8646,5.32796 -3.29055,3.29173 -5.32796,7.84253 -5.32796,12.8646 0,5.02559 2.0374,9.5752 5.32796,12.8669 3.29173,3.29173 7.84016,5.32559 12.8646,5.32559 5.02559,0 9.57402,-2.03386 12.8646,-5.32559 3.29173,-3.29173 5.32914,-7.84134 5.32914,-12.8669 0,-5.02205 -2.0374,-9.57284 -5.32914,-12.8646z"/>
   <path id="_206725232" class="fil4" d="M1042.02 1582.47c11.3516,0 21.6295,4.60276 29.0681,12.0437 7.43977,7.43859 12.0425,17.7177 12.0425,29.0681 0,11.3528 -4.60276,21.6307 -12.0425,29.0705 -7.43859,7.43859 -17.7165,12.0413 -29.0681,12.0413 -11.3528,0 -21.6307,-4.60276 -29.0717,-12.0413 -7.43741,-7.43977 -12.0402,-17.7177 -12.0402,-29.0705 0,-11.3504 4.60276,-21.6295 12.0402,-29.0681 7.44095,-7.44095 17.7189,-12.0437 29.0717,-12.0437z"/>
   <path id="_206725064" class="fil6" d="M783.524 1314.58l367.93 0 16.363 -35.7862c26.0433,-56.9351 66.1997,-59.3115 114.704,-62.1827 6.0189,-0.357874 12.1866,-0.722835 19.3854,-1.30512l0 22.9666c-5.70473,0.435827 -11.9433,0.805512 -18.0437,1.16575 -41.0091,2.42953 -74.9634,4.43859 -95.2784,48.8445l-130.489 287.25 -189.384 -0.126378 0.0271654 -22.6807 173.852 -0.109843 20.5264 -44.8548 -194.183 0 -70.7693 -122.17 -0.0330709 0.0212599 -12.8102 -22.1941 -20.0681 -34.6429 0.046063 -0.0448819 -19.2059 -33.2681 26.5595 0 0.780709 1.62165 10.0902 17.4957z"/>
   <polygon id="_206724896" class="fil6" points="977.682,1575.48 868.711,1575.4 868.738,1552.72 977.682,1552.65 "/>
   <polygon id="_206724704" class="fil7" points="783.524,1314.58 977.682,1314.58 977.682,1507.76 868.934,1507.76 798.165,1385.59 798.132,1385.61 785.321,1363.41 765.253,1328.77 765.299,1328.73 746.093,1295.46 772.653,1295.46 773.434,1297.08 "/>
   <path id="_206724584" class="fil5" d="M1054.89 1610.72c-3.29055,-3.29055 -7.83898,-5.32796 -12.8634,-5.32796 -5.02559,0 -9.57639,2.0374 -12.8681,5.32796 -3.29055,3.29173 -5.32559,7.84253 -5.32559,12.8646 0,5.02559 2.03504,9.5752 5.32559,12.8669 3.29173,3.29173 7.84253,5.32559 12.8681,5.32559 5.02441,0 9.57284,-2.03386 12.8634,-5.32559 3.29173,-3.29173 5.32914,-7.84134 5.32914,-12.8669 0,-5.02205 -2.0374,-9.57284 -5.32914,-12.8646z"/>
   <polygon id="_206724416" class="fil7" points="1069.56,1426.56 882.427,1426.56 868.97,1403.64 1079.9,1403.64 "/>
   <polygon id="_206724248" class="fil7" points="1050.93,1467.87 906.689,1467.87 893.232,1444.95 1061.26,1444.95 "/>
   <polygon id="_206724080" class="fil7" points="1088.19,1385.24 858.165,1385.24 844.707,1362.32 1098.64,1362.32 "/>
   <polygon id="_206723912" class="fil8" points="1068.23,1422.49 881.101,1422.49 867.643,1399.57 1078.57,1399.57 "/>
   <polygon id="_206723744" class="fil8" points="1049.6,1463.81 905.363,1463.81 891.905,1440.89 1059.94,1440.89 "/>
   <polygon id="_206723600" class="fil8" points="1086.87,1381.18 856.838,1381.18 843.38,1358.26 1097.32,1358.26 "/>
  </g>
 </g>
</svg>
