<?xml version="1.0" encoding="UTF-8"?>
<!DOCTYPE svg PUBLIC "-//W3C//DTD SVG 1.1//EN" "http://www.w3.org/Graphics/SVG/1.1/DTD/svg11.dtd">
<!-- Creator: CorelDRAW -->
<svg xmlns="http://www.w3.org/2000/svg" xml:space="preserve" width="2048px" height="2048px" style="shape-rendering:geometricPrecision; text-rendering:geometricPrecision; image-rendering:optimizeQuality; fill-rule:evenodd; clip-rule:evenodd"
viewBox="0 0 2048 2048"
 xmlns:xlink="http://www.w3.org/1999/xlink">
 <defs>
  <style type="text/css">
   <![CDATA[
    .fil0 {fill:none}
    .fil1 {fill:#00897B}
    .fil2 {fill:#4DB6AC}
   ]]>
  </style>
 </defs>
 <g id="Layer_x0020_1">
  <metadata id="CorelCorpID_0Corel-Layer"/>
  <rect class="fil0" width="2048" height="2048"/>
  <rect class="fil0" x="255.999" y="255.999" width="1536" height="1536"/>
  <rect class="fil0" x="255.999" y="256" width="1536" height="1536"/>
  <path class="fil1" d="M673.842 674.712c169.51,-169.716 428.821,-193.899 624.831,-73.9158 -66.4583,65.6741 -142.934,142.486 -142.934,142.486 -53.8063,64.3465 6.44764,101.463 37.1162,100.397l357.933 0c19.0618,0 34.5555,0 34.5555,0l104.023 0c18.8008,0 34.2189,-15.4181 34.2189,-34.4811l0 -492.439c2.31851,-44.817 -47.1331,-88.6052 -98.3599,-38.3693 0,0 -84.456,82.4197 -142.673,140.113 -298.464,-217.915 -719.041,-193.19 -988.706,76.2131 -157.38,157.381 -230.491,365.988 -221.726,572.018l254.694 0c-9.02717,-140.636 39.4335,-284.355 147.026,-392.022z"/>
  <path class="fil2" d="M1521.18 981.213c9.02717,140.896 -39.4335,284.56 -147.026,392.228 -169.772,169.454 -428.821,193.712 -624.831,73.9146 66.4583,-65.6729 142.952,-142.41 142.952,-142.41 53.5252,-64.4209 -6.72875,-101.463 -37.1351,-100.416l-358.194 0c-18.7831,0 -34.2756,0 -34.2756,0l-104.042 0c-19.063,0 -34.4811,15.4181 -34.4811,34.2189l0 492.439c-2.0563,45.0225 47.3953,88.6052 98.3599,38.3693 0,0 84.456,-82.1575 142.935,-140.112 298.483,218.176 719.041,193.451 988.444,-76.2142 157.381,-157.101 230.753,-365.97 221.988,-572.017l-254.694 0z"/>
 </g>
</svg>
