<?xml version="1.0" encoding="UTF-8"?>
<!DOCTYPE svg PUBLIC "-//W3C//DTD SVG 1.1//EN" "http://www.w3.org/Graphics/SVG/1.1/DTD/svg11.dtd">
<!-- Creator: CorelDRAW -->
<svg xmlns="http://www.w3.org/2000/svg" xml:space="preserve" width="2048px" height="2048px" style="shape-rendering:geometricPrecision; text-rendering:geometricPrecision; image-rendering:optimizeQuality; fill-rule:evenodd; clip-rule:evenodd"
viewBox="0 0 2048 2048"
 xmlns:xlink="http://www.w3.org/1999/xlink">
 <defs>
  <style type="text/css">
   <![CDATA[
    .fil0 {fill:none}
    .fil2 {fill:#039BE5}
    .fil3 {fill:#29B6F6}
    .fil1 {fill:#616161}
    .fil4 {fill:#757575}
   ]]>
  </style>
 </defs>
 <g id="Layer_x0020_1">
  <metadata id="CorelCorpID_0Corel-Layer"/>
  <rect class="fil0" width="2048" height="2048"/>
  <rect class="fil0" x="255.999" y="255.999" width="1536" height="1536"/>
  <rect class="fil0" x="256.002" y="256.001" width="1536" height="1536"/>
  <rect class="fil0" x="256.002" y="256.001" width="1536" height="1536"/>
  <g id="_340353856">
   <path id="_340354336" class="fil1" d="M1762.04 1567.36l-490.199 -398.331c-24.6851,40.1622 -54.1134,77.2548 -87.8387,110.973 -2.75315,2.76024 -5.66693,5.52402 -8.57599,8.27717l493.269 400.637c13.9512,10.7232 30.3473,15.7843 46.5969,15.7843 22.9937,0 45.8351,-10.2709 60.8563,-30.0437 25.7469,-33.417 19.4669,-81.5422 -14.1083,-107.297z"/>
   <path id="_340354264" class="fil2" d="M1035.44 910.29c0,-23.6067 -19.1599,-42.6154 -42.6083,-42.6154l-47.3622 0c-8.43426,0 -16.2496,3.98859 -21.0012,10.8815l-69.8989 98.8702 -17.0102 -35.8666 27.1299 -57.0248c3.67559,-7.813 -1.99843,-16.8602 -10.5839,-16.8602l-54.254 0c-8.58544,0 -14.4165,9.04725 -10.585,16.8614l27.1335 57.0237 -16.7055 35.2536 -67.9087 -97.9513c-4.74331,-6.89174 -12.7146,-11.1874 -21.15,-11.1874l-49.8166 0c-23.6067,0 -42.6095,19.1599 -42.6095,42.6154l0 283.414 417.388 0 0 -283.414 -0.157087 0z"/>
   <path id="_340354168" class="fil3" d="M826.83 840.542c75.7217,0 137.341,-61.6193 137.341,-137.338 0,-75.7217 -61.6205,-137.341 -137.341,-137.341 -75.7217,0 -137.341,61.6193 -137.341,137.341 0,75.7182 61.6193,137.339 137.341,137.338z"/>
   <path id="_340354024" class="fil4" d="M825.91 1482.95l0.125197 0 0.0318898 0c76.9477,0 151.591,-15.0213 221.795,-44.7579 62.6894,-26.5181 119.408,-63.6095 168.918,-110.208 4.13977,-3.83268 8.27835,-7.82127 12.2669,-11.8028 32.491,-32.4981 60.7004,-68.5217 84.3048,-107.297 14.25,-23.765 26.974,-48.2835 37.7079,-73.8875 29.7355,-70.3548 44.7567,-145.005 44.7567,-221.795 0.0011811,-76.7989 -15.0213,-151.598 -44.7567,-221.801 -3.98859,-9.49843 -8.27953,-19.004 -12.8811,-28.2024 -27.5894,-56.5607 -64.226,-107.91 -109.289,-152.975 -28.0524,-28.0524 -58.7091,-52.8863 -91.5131,-74.3434 -28.3524,-18.5445 -58.2437,-34.4882 -89.6646,-47.8252 -70.03,-29.5973 -144.302,-44.6126 -220.721,-44.7532l-1.08071 -0.00354331 0 164.325 0.307087 -0.00236221 0.636615 0.00354331c108.128,0.164173 209.661,42.2989 286.003,118.789 8.73544,8.73308 17.0126,17.7827 24.8256,27.1311 2.61378,3.21614 5.21693,6.27874 7.82127,9.65434 55.9489,71.1249 86.1473,158.183 86.1473,250.003 0.0011811,108.367 -42.1536,210.149 -118.794,286.79 -76.6406,76.6406 -178.422,118.793 -286.64,118.793l-0.0448819 0 -0.262205 -0.00236221 0 164.167z"/>
   <path id="_340353928" class="fil1" d="M604.263 1438.19c70.3075,29.7166 144.904,44.7378 221.647,44.7579l0 -164.167c-108.105,-0.080315 -209.916,-42.2221 -286.336,-118.791 -76.6406,-76.6406 -118.793,-178.421 -118.793,-286.79 -0.15,-91.9701 30.2008,-179.035 85.9973,-250.153 3.06142,-3.8315 6.12874,-7.663 9.34725,-11.3457 7.35827,-8.73544 15.0225,-17.1697 23.2996,-25.2898 76.5686,-76.5697 178.23,-118.71 286.485,-118.791l0 -164.325c-76.9501,0 -151.601,15.0213 -221.796,44.7567 -30.8138,13.0299 -60.2445,28.6654 -88.1375,46.7563 -33.4193,21.6142 -64.5402,46.7469 -93.0485,75.2634 -44.9055,44.9055 -81.5422,96.2564 -109.287,152.974 -4.44567,9.19135 -8.89135,18.6969 -12.8752,28.2 -29.7343,70.3548 -44.7638,145.005 -44.7638,221.796 0,76.7977 15.0295,151.597 44.7638,221.802 28.6595,67.9064 69.7418,128.756 122.163,181.178 52.4233,52.2709 113.427,93.352 181.335,122.167z"/>
  </g>
 </g>
</svg>
